<?xml version="1.0" encoding="UTF-8"?>
<svg width="291px" height="64px" viewBox="0 0 291 64" version="1.1" xmlns="http://www.w3.org/2000/svg" xmlns:xlink="http://www.w3.org/1999/xlink">
    <!-- Generator: Sketch 47 (45396) - http://www.bohemiancoding.com/sketch -->
    <title>icons/marketing-micro-segmentation</title>
    <desc>Created with Sketch.</desc>
    <defs></defs>
    <g id="Icons" stroke="none" stroke-width="1" fill="none" fill-rule="evenodd">
        <g id="Artboard" transform="translate(-199.000000, -183.000000)">
            <g id="icons/marketing-micro-segmentation" transform="translate(201.000000, 185.000000)">
                <g>
                    <g id="marketing-micro-segmentation">
                        <circle id="Oval" stroke="#F4BB7B" stroke-width="2" cx="30" cy="30" r="31"></circle>
                        <g id="Group" transform="translate(15.000000, 15.000000)" fill-rule="nonzero" fill="#F4BB7B">
                            <path d="M15,0 C14.64,0 14.3478261,0.292173913 14.3478261,0.652173913 L14.3478261,5.86956522 C14.3478261,6.22956522 14.64,6.52173913 15,6.52173913 C19.6747826,6.52173913 23.4782609,10.3252174 23.4782609,15 C23.4782609,19.6747826 19.6747826,23.4782609 15,23.4782609 C10.3252174,23.4782609 6.52173913,19.6747826 6.52173913,15 C6.52173913,14.64 6.22956522,14.3478261 5.86956522,14.3478261 L0.652173913,14.3478261 C0.292173913,14.3478261 0,14.64 0,15 C0,23.2708696 6.72913043,30 15,30 C23.2708696,30 30,23.2708696 30,15 C30,6.72913043 23.2708696,0 15,0 Z" id="Shape"></path>
                            <path d="M15,19.4117647 C17.4327731,19.4117647 19.4117647,17.4327731 19.4117647,15 C19.4117647,12.5672269 17.4327731,10.5882353 15,10.5882353 C12.5672269,10.5882353 10.5882353,12.5672269 10.5882353,15 C10.5882353,17.4327731 12.5672269,19.4117647 15,19.4117647 Z" id="Shape" opacity="0.4"></path>
                        </g>
                    </g>
                    <path d="M79.0976562,11.78125 L82.75,22.09375 L86.3828125,11.78125 L90.2304688,11.78125 L90.2304688,26 L87.2910156,26 L87.2910156,22.1132812 L87.5839844,15.4042969 L83.7460938,26 L81.734375,26 L77.90625,15.4140625 L78.1992188,22.1132812 L78.1992188,26 L75.2695312,26 L75.2695312,11.78125 L79.0976562,11.78125 Z M100.992188,23.0703125 L95.8554688,23.0703125 L94.8789062,26 L91.7636719,26 L97.0566406,11.78125 L99.7714844,11.78125 L105.09375,26 L101.978516,26 L100.992188,23.0703125 Z M96.6464844,20.6972656 L100.201172,20.6972656 L98.4140625,15.375 L96.6464844,20.6972656 Z M111.685547,20.7949219 L109.351562,20.7949219 L109.351562,26 L106.421875,26 L106.421875,11.78125 L111.705078,11.78125 C113.384774,11.78125 114.680334,12.1555952 115.591797,12.9042969 C116.50326,13.6529985 116.958984,14.7109307 116.958984,16.078125 C116.958984,17.0481819 116.749026,17.8570931 116.329102,18.5048828 C115.909178,19.1526725 115.272791,19.6686179 114.419922,20.0527344 L117.496094,25.8632812 L117.496094,26 L114.351562,26 L111.685547,20.7949219 Z M109.351562,18.421875 L111.714844,18.421875 C112.450525,18.421875 113.02018,18.2347024 113.423828,17.8603516 C113.827476,17.4860007 114.029297,16.9700554 114.029297,16.3125 C114.029297,15.6419237 113.838869,15.1145853 113.458008,14.7304688 C113.077147,14.3463522 112.492842,14.1542969 111.705078,14.1542969 L109.351562,14.1542969 L109.351562,18.421875 Z M123.638672,20.296875 L122.115234,21.9375 L122.115234,26 L119.185547,26 L119.185547,11.78125 L122.115234,11.78125 L122.115234,18.2265625 L123.404297,16.4589844 L127.027344,11.78125 L130.630859,11.78125 L125.582031,18.0996094 L130.777344,26 L127.291016,26 L123.638672,20.296875 Z M140.435547,19.8378906 L134.810547,19.8378906 L134.810547,23.6464844 L141.412109,23.6464844 L141.412109,26 L131.880859,26 L131.880859,11.78125 L141.392578,11.78125 L141.392578,14.1542969 L134.810547,14.1542969 L134.810547,17.5429688 L140.435547,17.5429688 L140.435547,19.8378906 Z M154.029297,14.1542969 L149.673828,14.1542969 L149.673828,26 L146.744141,26 L146.744141,14.1542969 L142.447266,14.1542969 L142.447266,11.78125 L154.029297,11.78125 L154.029297,14.1542969 Z M158.814453,26 L155.884766,26 L155.884766,11.78125 L158.814453,11.78125 L158.814453,26 Z M173.091797,26 L170.162109,26 L164.458984,16.6445312 L164.458984,26 L161.529297,26 L161.529297,11.78125 L164.458984,11.78125 L170.171875,21.15625 L170.171875,11.78125 L173.091797,11.78125 L173.091797,26 Z M186.900391,24.203125 C186.373044,24.8346386 185.627609,25.3245425 184.664062,25.6728516 C183.700516,26.0211606 182.632818,26.1953125 181.460938,26.1953125 C180.230463,26.1953125 179.151372,25.9267605 178.223633,25.3896484 C177.295894,24.8525364 176.579755,24.0729218 176.075195,23.0507812 C175.570635,22.0286407 175.311849,20.8274809 175.298828,19.4472656 L175.298828,18.4804688 C175.298828,17.0611908 175.538084,15.832362 176.016602,14.7939453 C176.49512,13.7555287 177.185217,12.9612658 178.086914,12.4111328 C178.988611,11.8609999 180.044916,11.5859375 181.255859,11.5859375 C182.942066,11.5859375 184.260412,11.9879517 185.210938,12.7919922 C186.161463,13.5960327 186.724608,14.7662684 186.900391,16.3027344 L184.048828,16.3027344 C183.918619,15.4889282 183.630536,14.8932311 183.18457,14.515625 C182.738605,14.1380189 182.125004,13.9492188 181.34375,13.9492188 C180.347651,13.9492188 179.589195,14.323564 179.068359,15.0722656 C178.547523,15.8209673 178.283854,16.9342374 178.277344,18.4121094 L178.277344,19.3203125 C178.277344,20.8112054 178.560544,21.9374962 179.126953,22.6992188 C179.693362,23.4609413 180.523432,23.8417969 181.617188,23.8417969 C182.717453,23.8417969 183.501951,23.6074242 183.970703,23.1386719 L183.970703,20.6875 L181.304688,20.6875 L181.304688,18.5292969 L186.900391,18.5292969 L186.900391,24.203125 Z M82.6523438,48.3007812 L82.7109375,48.3007812 L88.0039062,35.78125 L89.4296875,35.78125 L89.4296875,50 L88.2578125,50 L88.2578125,38.0566406 L88.1992188,38.046875 L83.1015625,50 L82.2617188,50 L77.046875,37.7539062 L76.9882812,37.7636719 L76.9882812,50 L75.8164062,50 L75.8164062,35.78125 L77.3789062,35.78125 L82.6523438,48.3007812 Z M94.5371094,50 L93.3652344,50 L93.3652344,35.78125 L94.5371094,35.78125 L94.5371094,50 Z M108.267578,45.5566406 L108.287109,45.6152344 C108.313151,47.0084705 107.857427,48.1217406 106.919922,48.9550781 C105.982417,49.7884156 104.751961,50.2050781 103.228516,50.2050781 C101.646476,50.2050781 100.370448,49.6337948 99.4003906,48.4912109 C98.4303337,47.3486271 97.9453125,45.8691497 97.9453125,44.0527344 L97.9453125,41.7382812 C97.9453125,39.9283764 98.4303337,38.448899 99.4003906,37.2998047 C100.370448,36.1507104 101.646476,35.5761719 103.228516,35.5761719 C104.771492,35.5761719 106.006831,35.9830688 106.93457,36.796875 C107.862309,37.6106812 108.313151,38.7304616 108.287109,40.15625 L108.267578,40.2148438 L107.173828,40.2148438 C107.173828,39.0690047 106.823897,38.1754589 106.124023,37.5341797 C105.42415,36.8929004 104.458991,36.5722656 103.228516,36.5722656 C101.98502,36.5722656 100.987308,37.0540316 100.235352,38.0175781 C99.4833947,38.9811246 99.1074219,40.2148362 99.1074219,41.71875 L99.1074219,44.0527344 C99.1074219,45.5761795 99.4833947,46.8180291 100.235352,47.7783203 C100.987308,48.7386116 101.98502,49.21875 103.228516,49.21875 C104.458991,49.21875 105.42415,48.9062531 106.124023,48.28125 C106.823897,47.6562469 107.173828,46.7480528 107.173828,45.5566406 L108.267578,45.5566406 Z M112.4375,43.5742188 L112.4375,50 L111.265625,50 L111.265625,35.7910156 L116.001953,35.7910156 C117.525398,35.7910156 118.694006,36.1246711 119.507812,36.7919922 C120.321619,37.4593132 120.728516,38.4342384 120.728516,39.7167969 C120.728516,40.472009 120.512046,41.147458 120.079102,41.7431641 C119.646157,42.3388702 119.032556,42.7734361 118.238281,43.046875 C119.117192,43.2682303 119.750324,43.6637341 120.137695,44.2333984 C120.525067,44.8030627 120.71875,45.5175738 120.71875,46.3769531 L120.71875,47.7148438 C120.71875,48.1575543 120.770833,48.5546857 120.875,48.90625 C120.979167,49.2578143 121.151692,49.5442697 121.392578,49.765625 L121.392578,50 L120.201172,50 C119.960285,49.7656238 119.791016,49.4368511 119.693359,49.0136719 C119.595703,48.5904927 119.546875,48.1510439 119.546875,47.6953125 L119.546875,46.3964844 C119.546875,45.5240842 119.265302,44.8356145 118.702148,44.3310547 C118.138995,43.8264949 117.35287,43.5742188 116.34375,43.5742188 L112.4375,43.5742188 Z M112.4375,42.578125 L115.865234,42.578125 C117.147793,42.578125 118.085283,42.3193385 118.677734,41.8017578 C119.270185,41.2841771 119.566406,40.5859419 119.566406,39.7070312 C119.566406,38.7695266 119.271813,38.0485051 118.682617,37.5439453 C118.093422,37.0393855 117.199876,36.7871094 116.001953,36.7871094 L112.4375,36.7871094 L112.4375,42.578125 Z M134.771484,44.0527344 C134.771484,45.8886811 134.26856,47.3730412 133.262695,48.5058594 C132.256831,49.6386775 130.907561,50.2050781 129.214844,50.2050781 C127.548169,50.2050781 126.218429,49.6386775 125.225586,48.5058594 C124.232742,47.3730412 123.736328,45.8886811 123.736328,44.0527344 L123.736328,41.7382812 C123.736328,39.908845 124.231115,38.4244849 125.220703,37.2851562 C126.210291,36.1458276 127.538403,35.5761719 129.205078,35.5761719 C130.897795,35.5761719 132.248693,36.1458276 133.257812,37.2851562 C134.266932,38.4244849 134.771484,39.908845 134.771484,41.7382812 L134.771484,44.0527344 Z M133.609375,41.71875 C133.609375,40.182284 133.220381,38.9453172 132.442383,38.0078125 C131.664384,37.0703078 130.585293,36.6015625 129.205078,36.6015625 C127.850905,36.6015625 126.796228,37.0703078 126.041016,38.0078125 C125.285804,38.9453172 124.908203,40.182284 124.908203,41.71875 L124.908203,44.0527344 C124.908203,45.6022213 125.287431,46.8456984 126.045898,47.7832031 C126.804366,48.7207078 127.86067,49.1894531 129.214844,49.1894531 C130.601569,49.1894531 131.68066,48.7223354 132.452148,47.7880859 C133.223637,46.8538365 133.609375,45.6087317 133.609375,44.0527344 L133.609375,41.71875 Z M143.013672,44.4335938 L137.251953,44.4335938 L137.251953,43.4472656 L143.013672,43.4472656 L143.013672,44.4335938 Z M154.214844,46.5429688 C154.214844,45.8137984 153.925133,45.2115909 153.345703,44.7363281 C152.766273,44.2610653 151.78321,43.8151062 150.396484,43.3984375 C148.87955,42.9817688 147.72559,42.4625682 146.93457,41.8408203 C146.143551,41.2190724 145.748047,40.3743543 145.748047,39.3066406 C145.748047,38.2193956 146.190751,37.3258499 147.076172,36.6259766 C147.961593,35.9261033 149.091139,35.5761719 150.464844,35.5761719 C151.910163,35.5761719 153.072261,35.9716757 153.951172,36.7626953 C154.830083,37.5537149 155.256511,38.5579366 155.230469,39.7753906 L155.210938,39.8339844 L154.117188,39.8339844 C154.117188,38.8964797 153.777022,38.1184927 153.09668,37.5 C152.416338,36.8815073 151.539068,36.5722656 150.464844,36.5722656 C149.358067,36.5722656 148.490563,36.8343073 147.862305,37.3583984 C147.234046,37.8824896 146.919922,38.5253868 146.919922,39.2871094 C146.919922,40.0097692 147.20475,40.6038388 147.774414,41.0693359 C148.344078,41.5348331 149.3483,41.969399 150.787109,42.3730469 C152.284513,42.809247 153.427079,43.346351 154.214844,43.984375 C155.002608,44.622399 155.396484,45.4687447 155.396484,46.5234375 C155.396484,47.6302139 154.935877,48.5205044 154.014648,49.1943359 C153.09342,49.8681674 151.93295,50.2050781 150.533203,50.2050781 C149.133457,50.2050781 147.912766,49.8486364 146.871094,49.1357422 C145.829422,48.422848 145.32487,47.3828193 145.357422,46.015625 L145.376953,45.9570312 L146.460938,45.9570312 C146.460938,47.0572972 146.874345,47.8759739 147.701172,48.4130859 C148.527999,48.950198 149.472,49.21875 150.533203,49.21875 C151.620448,49.21875 152.505856,48.9697291 153.189453,48.4716797 C153.87305,47.9736303 154.214844,47.3307331 154.214844,46.5429688 Z M165.816406,43.1152344 L159.439453,43.1152344 L159.439453,49.0136719 L166.8125,49.0136719 L166.8125,50 L158.267578,50 L158.267578,35.78125 L166.763672,35.78125 L166.763672,36.7773438 L159.439453,36.7773438 L159.439453,42.1191406 L165.816406,42.1191406 L165.816406,43.1152344 Z M179.400391,48.0859375 C179.087889,48.600263 178.510095,49.082029 177.666992,49.53125 C176.823889,49.980471 175.761074,50.2050781 174.478516,50.2050781 C172.844393,50.2050781 171.506516,49.6419327 170.464844,48.515625 C169.423172,47.3893173 168.902344,45.9309985 168.902344,44.140625 L168.902344,41.5332031 C168.902344,39.7753818 169.406896,38.3431045 170.416016,37.2363281 C171.425135,36.1295518 172.730461,35.5761719 174.332031,35.5761719 C175.875008,35.5761719 177.100581,35.9830688 178.008789,36.796875 C178.916997,37.6106812 179.358073,38.6458271 179.332031,39.9023438 L179.302734,39.9609375 L178.228516,39.9609375 C178.228516,38.9778597 177.889977,38.1673209 177.212891,37.5292969 C176.535804,36.8912729 175.575527,36.5722656 174.332031,36.5722656 C173.055983,36.5722656 172.027348,37.0345006 171.246094,37.9589844 C170.46484,38.8834682 170.074219,40.0683521 170.074219,41.5136719 L170.074219,44.140625 C170.074219,45.6250074 170.481116,46.8424432 171.294922,47.7929688 C172.108728,48.7434943 173.169915,49.21875 174.478516,49.21875 C175.474614,49.21875 176.288408,49.0690119 176.919922,48.7695312 C177.551435,48.4700506 177.990884,48.1217468 178.238281,47.7246094 L178.238281,44.0820312 L174.410156,44.0820312 L174.410156,43.0859375 L179.400391,43.0859375 L179.400391,48.0859375 Z M189.898438,48.3007812 L189.957031,48.3007812 L195.25,35.78125 L196.675781,35.78125 L196.675781,50 L195.503906,50 L195.503906,38.0566406 L195.445312,38.046875 L190.347656,50 L189.507812,50 L184.292969,37.7539062 L184.234375,37.7636719 L184.234375,50 L183.0625,50 L183.0625,35.78125 L184.625,35.78125 L189.898438,48.3007812 Z M207.857422,43.1152344 L201.480469,43.1152344 L201.480469,49.0136719 L208.853516,49.0136719 L208.853516,50 L200.308594,50 L200.308594,35.78125 L208.804688,35.78125 L208.804688,36.7773438 L201.480469,36.7773438 L201.480469,42.1191406 L207.857422,42.1191406 L207.857422,43.1152344 Z M221.8125,50 L220.640625,50 L212.564453,37.8320312 L212.505859,37.8417969 L212.505859,50 L211.333984,50 L211.333984,35.78125 L212.505859,35.78125 L220.582031,47.9199219 L220.640625,47.9101562 L220.640625,35.78125 L221.8125,35.78125 L221.8125,50 Z M234.830078,36.7773438 L229.986328,36.7773438 L229.986328,50 L228.824219,50 L228.824219,36.7773438 L223.814453,36.7773438 L223.814453,35.78125 L234.830078,35.78125 L234.830078,36.7773438 Z M243.785156,46.0351562 L237.544922,46.0351562 L236.109375,50 L234.898438,50 L240.123047,35.78125 L241.226562,35.78125 L246.412109,50 L245.201172,50 L243.785156,46.0351562 Z M237.916016,44.9902344 L243.404297,44.9902344 L240.708984,37.4511719 L240.650391,37.4511719 L237.916016,44.9902344 Z M257.017578,36.7773438 L252.173828,36.7773438 L252.173828,50 L251.011719,50 L251.011719,36.7773438 L246.001953,36.7773438 L246.001953,35.78125 L257.017578,35.78125 L257.017578,36.7773438 Z M260.777344,50 L259.605469,50 L259.605469,35.78125 L260.777344,35.78125 L260.777344,50 Z M275.142578,44.0527344 C275.142578,45.8886811 274.639653,47.3730412 273.633789,48.5058594 C272.627925,49.6386775 271.278654,50.2050781 269.585938,50.2050781 C267.919263,50.2050781 266.589523,49.6386775 265.59668,48.5058594 C264.603836,47.3730412 264.107422,45.8886811 264.107422,44.0527344 L264.107422,41.7382812 C264.107422,39.908845 264.602209,38.4244849 265.591797,37.2851562 C266.581385,36.1458276 267.909497,35.5761719 269.576172,35.5761719 C271.268889,35.5761719 272.619787,36.1458276 273.628906,37.2851562 C274.638026,38.4244849 275.142578,39.908845 275.142578,41.7382812 L275.142578,44.0527344 Z M273.980469,41.71875 C273.980469,40.182284 273.591475,38.9453172 272.813477,38.0078125 C272.035478,37.0703078 270.956387,36.6015625 269.576172,36.6015625 C268.221998,36.6015625 267.167321,37.0703078 266.412109,38.0078125 C265.656897,38.9453172 265.279297,40.182284 265.279297,41.71875 L265.279297,44.0527344 C265.279297,45.6022213 265.658525,46.8456984 266.416992,47.7832031 C267.17546,48.7207078 268.231764,49.1894531 269.585938,49.1894531 C270.972663,49.1894531 272.051754,48.7223354 272.823242,47.7880859 C273.59473,46.8538365 273.980469,45.6087317 273.980469,44.0527344 L273.980469,41.71875 Z M288.648438,50 L287.476562,50 L279.400391,37.8320312 L279.341797,37.8417969 L279.341797,50 L278.169922,50 L278.169922,35.78125 L279.341797,35.78125 L287.417969,47.9199219 L287.476562,47.9101562 L287.476562,35.78125 L288.648438,35.78125 L288.648438,50 Z" id="Marketing-Micro-segm" fill="#3F3F3F"></path>
                </g>
            </g>
        </g>
    </g>
</svg>