<?xml version="1.0" encoding="UTF-8"?>
<svg width="201px" height="64px" viewBox="0 0 201 64" version="1.1" xmlns="http://www.w3.org/2000/svg" xmlns:xlink="http://www.w3.org/1999/xlink">
    <!-- Generator: Sketch 47 (45396) - http://www.bohemiancoding.com/sketch -->
    <title>icons/pricing-automation</title>
    <desc>Created with Sketch.</desc>
    <defs>
        <circle id="path-1" cx="30" cy="30" r="30"></circle>
    </defs>
    <g id="Icons" stroke="none" stroke-width="1" fill="none" fill-rule="evenodd">
        <g id="Artboard" transform="translate(-199.000000, -504.000000)">
            <g id="icons/pricing-automation" transform="translate(201.000000, 506.000000)">
                <g>
                    <path d="M80.1992188,19.9902344 L80.1992188,25 L77.2695312,25 L77.2695312,10.78125 L82.8164062,10.78125 C83.8841199,10.78125 84.8232381,10.9765605 85.6337891,11.3671875 C86.44434,11.7578145 87.0677062,12.3128219 87.5039062,13.0322266 C87.9401063,13.7516312 88.1582031,14.5703079 88.1582031,15.4882812 C88.1582031,16.8815174 87.6813199,17.9801392 86.7275391,18.7841797 C85.7737583,19.5882202 84.4537845,19.9902344 82.7675781,19.9902344 L80.1992188,19.9902344 Z M80.1992188,17.6171875 L82.8164062,17.6171875 C83.5911497,17.6171875 84.1819641,17.4348977 84.5888672,17.0703125 C84.9957703,16.7057273 85.1992188,16.1848992 85.1992188,15.5078125 C85.1992188,14.8111944 84.9941427,14.248049 84.5839844,13.8183594 C84.1738261,13.3886697 83.6074255,13.1673178 82.8847656,13.1542969 L80.1992188,13.1542969 L80.1992188,17.6171875 Z M95.4335938,19.7949219 L93.0996094,19.7949219 L93.0996094,25 L90.1699219,25 L90.1699219,10.78125 L95.453125,10.78125 C97.1328209,10.78125 98.4283809,11.1555952 99.3398438,11.9042969 C100.251307,12.6529985 100.707031,13.7109307 100.707031,15.078125 C100.707031,16.0481819 100.497072,16.8570931 100.077148,17.5048828 C99.6572245,18.1526725 99.0208376,18.6686179 98.1679688,19.0527344 L101.244141,24.8632812 L101.244141,25 L98.0996094,25 L95.4335938,19.7949219 Z M93.0996094,17.421875 L95.4628906,17.421875 C96.1985714,17.421875 96.7682271,17.2347024 97.171875,16.8603516 C97.5755229,16.4860007 97.7773438,15.9700554 97.7773438,15.3125 C97.7773438,14.6419237 97.586916,14.1145853 97.2060547,13.7304688 C96.8251934,13.3463522 96.2408894,13.1542969 95.453125,13.1542969 L93.0996094,13.1542969 L93.0996094,17.421875 Z M106.048828,25 L103.119141,25 L103.119141,10.78125 L106.048828,10.78125 L106.048828,25 Z M119.925781,20.2636719 C119.815104,21.7936274 119.250331,22.9980425 118.231445,23.8769531 C117.21256,24.7558638 115.8698,25.1953125 114.203125,25.1953125 C112.380199,25.1953125 110.946294,24.5817119 109.901367,23.3544922 C108.85644,22.1272725 108.333984,20.442719 108.333984,18.3007812 L108.333984,17.4316406 C108.333984,16.0644463 108.574867,14.8600312 109.056641,13.8183594 C109.538414,12.7766875 110.226884,11.9775418 111.12207,11.4208984 C112.017257,10.864255 113.057286,10.5859375 114.242188,10.5859375 C115.882821,10.5859375 117.204422,11.0253862 118.207031,11.9042969 C119.20964,12.7832075 119.789062,14.0169191 119.945312,15.6054688 L117.015625,15.6054688 C116.94401,14.6874954 116.688479,14.021812 116.249023,13.6083984 C115.809568,13.1949849 115.140629,12.9882812 114.242188,12.9882812 C113.26562,12.9882812 112.534833,13.3382126 112.049805,14.0380859 C111.564776,14.7379592 111.315755,15.8235604 111.302734,17.2949219 L111.302734,18.3691406 C111.302734,19.9056066 111.535479,21.0286423 112.000977,21.7382812 C112.466474,22.4479202 113.200516,22.8027344 114.203125,22.8027344 C115.108077,22.8027344 115.783526,22.5960307 116.229492,22.1826172 C116.675458,21.7692037 116.930989,21.1295616 116.996094,20.2636719 L119.925781,20.2636719 Z M124.964844,25 L122.035156,25 L122.035156,10.78125 L124.964844,10.78125 L124.964844,25 Z M139.242188,25 L136.3125,25 L130.609375,15.6445312 L130.609375,25 L127.679688,25 L127.679688,10.78125 L130.609375,10.78125 L136.322266,20.15625 L136.322266,10.78125 L139.242188,10.78125 L139.242188,25 Z M153.050781,23.203125 C152.523435,23.8346386 151.778,24.3245425 150.814453,24.6728516 C149.850907,25.0211606 148.783209,25.1953125 147.611328,25.1953125 C146.380853,25.1953125 145.301762,24.9267605 144.374023,24.3896484 C143.446284,23.8525364 142.730146,23.0729218 142.225586,22.0507812 C141.721026,21.0286407 141.46224,19.8274809 141.449219,18.4472656 L141.449219,17.4804688 C141.449219,16.0611908 141.688474,14.832362 142.166992,13.7939453 C142.64551,12.7555287 143.335607,11.9612658 144.237305,11.4111328 C145.139002,10.8609999 146.195306,10.5859375 147.40625,10.5859375 C149.092456,10.5859375 150.410803,10.9879517 151.361328,11.7919922 C152.311854,12.5960327 152.874999,13.7662684 153.050781,15.3027344 L150.199219,15.3027344 C150.06901,14.4889282 149.780927,13.8932311 149.334961,13.515625 C148.888995,13.1380189 148.275395,12.9492188 147.494141,12.9492188 C146.498042,12.9492188 145.739586,13.323564 145.21875,14.0722656 C144.697914,14.8209673 144.434245,15.9342374 144.427734,17.4121094 L144.427734,18.3203125 C144.427734,19.8112054 144.710935,20.9374962 145.277344,21.6992188 C145.843753,22.4609413 146.673823,22.8417969 147.767578,22.8417969 C148.867844,22.8417969 149.652341,22.6074242 150.121094,22.1386719 L150.121094,19.6875 L147.455078,19.6875 L147.455078,17.5292969 L153.050781,17.5292969 L153.050781,23.203125 Z M85.2578125,45.0351562 L79.0175781,45.0351562 L77.5820312,49 L76.3710938,49 L81.5957031,34.78125 L82.6992188,34.78125 L87.8847656,49 L86.6738281,49 L85.2578125,45.0351562 Z M79.3886719,43.9902344 L84.8769531,43.9902344 L82.1816406,36.4511719 L82.1230469,36.4511719 L79.3886719,43.9902344 Z M99.90625,34.78125 L99.90625,44.2246094 C99.90625,45.7871172 99.4277392,47.0078081 98.4707031,47.8867188 C97.5136671,48.7656294 96.2832106,49.2050781 94.7792969,49.2050781 C93.2949145,49.2050781 92.0823615,48.7640018 91.1416016,47.8818359 C90.2008417,46.9996701 89.7304688,45.7806067 89.7304688,44.2246094 L89.7304688,34.78125 L90.9023438,34.78125 L90.9023438,44.2246094 C90.9023438,45.4485738 91.2652958,46.4202438 91.9912109,47.1396484 C92.717126,47.8590531 93.6464787,48.21875 94.7792969,48.21875 C95.9381568,48.21875 96.8886682,47.8606807 97.6308594,47.1445312 C98.3730506,46.4283818 98.7441406,45.4550843 98.7441406,44.2246094 L98.7441406,34.78125 L99.90625,34.78125 Z M113.001953,35.7773438 L108.158203,35.7773438 L108.158203,49 L106.996094,49 L106.996094,35.7773438 L101.986328,35.7773438 L101.986328,34.78125 L113.001953,34.78125 L113.001953,35.7773438 Z M125.443359,43.0527344 C125.443359,44.8886811 124.940435,46.3730412 123.93457,47.5058594 C122.928706,48.6386775 121.579436,49.2050781 119.886719,49.2050781 C118.220044,49.2050781 116.890304,48.6386775 115.897461,47.5058594 C114.904617,46.3730412 114.408203,44.8886811 114.408203,43.0527344 L114.408203,40.7382812 C114.408203,38.908845 114.90299,37.4244849 115.892578,36.2851562 C116.882166,35.1458276 118.210278,34.5761719 119.876953,34.5761719 C121.56967,34.5761719 122.920568,35.1458276 123.929688,36.2851562 C124.938807,37.4244849 125.443359,38.908845 125.443359,40.7382812 L125.443359,43.0527344 Z M124.28125,40.71875 C124.28125,39.182284 123.892256,37.9453172 123.114258,37.0078125 C122.336259,36.0703078 121.257168,35.6015625 119.876953,35.6015625 C118.52278,35.6015625 117.468103,36.0703078 116.712891,37.0078125 C115.957679,37.9453172 115.580078,39.182284 115.580078,40.71875 L115.580078,43.0527344 C115.580078,44.6022213 115.959306,45.8456984 116.717773,46.7832031 C117.476241,47.7207078 118.532545,48.1894531 119.886719,48.1894531 C121.273444,48.1894531 122.352535,47.7223354 123.124023,46.7880859 C123.895512,45.8538365 124.28125,44.6087317 124.28125,43.0527344 L124.28125,40.71875 Z M135.306641,47.3007812 L135.365234,47.3007812 L140.658203,34.78125 L142.083984,34.78125 L142.083984,49 L140.912109,49 L140.912109,37.0566406 L140.853516,37.046875 L135.755859,49 L134.916016,49 L129.701172,36.7539062 L129.642578,36.7636719 L129.642578,49 L128.470703,49 L128.470703,34.78125 L130.033203,34.78125 L135.306641,47.3007812 Z M153.333984,45.0351562 L147.09375,45.0351562 L145.658203,49 L144.447266,49 L149.671875,34.78125 L150.775391,34.78125 L155.960938,49 L154.75,49 L153.333984,45.0351562 Z M147.464844,43.9902344 L152.953125,43.9902344 L150.257812,36.4511719 L150.199219,36.4511719 L147.464844,43.9902344 Z M166.566406,35.7773438 L161.722656,35.7773438 L161.722656,49 L160.560547,49 L160.560547,35.7773438 L155.550781,35.7773438 L155.550781,34.78125 L166.566406,34.78125 L166.566406,35.7773438 Z M170.326172,49 L169.154297,49 L169.154297,34.78125 L170.326172,34.78125 L170.326172,49 Z M184.691406,43.0527344 C184.691406,44.8886811 184.188482,46.3730412 183.182617,47.5058594 C182.176753,48.6386775 180.827482,49.2050781 179.134766,49.2050781 C177.468091,49.2050781 176.138351,48.6386775 175.145508,47.5058594 C174.152664,46.3730412 173.65625,44.8886811 173.65625,43.0527344 L173.65625,40.7382812 C173.65625,38.908845 174.151037,37.4244849 175.140625,36.2851562 C176.130213,35.1458276 177.458325,34.5761719 179.125,34.5761719 C180.817717,34.5761719 182.168615,35.1458276 183.177734,36.2851562 C184.186854,37.4244849 184.691406,38.908845 184.691406,40.7382812 L184.691406,43.0527344 Z M183.529297,40.71875 C183.529297,39.182284 183.140303,37.9453172 182.362305,37.0078125 C181.584306,36.0703078 180.505215,35.6015625 179.125,35.6015625 C177.770827,35.6015625 176.71615,36.0703078 175.960938,37.0078125 C175.205725,37.9453172 174.828125,39.182284 174.828125,40.71875 L174.828125,43.0527344 C174.828125,44.6022213 175.207353,45.8456984 175.96582,46.7832031 C176.724288,47.7207078 177.780592,48.1894531 179.134766,48.1894531 C180.521491,48.1894531 181.600582,47.7223354 182.37207,46.7880859 C183.143559,45.8538365 183.529297,44.6087317 183.529297,43.0527344 L183.529297,40.71875 Z M198.197266,49 L197.025391,49 L188.949219,36.8320312 L188.890625,36.8417969 L188.890625,49 L187.71875,49 L187.71875,34.78125 L188.890625,34.78125 L196.966797,46.9199219 L197.025391,46.9101562 L197.025391,34.78125 L198.197266,34.78125 L198.197266,49 Z" id="Pricing-Automation" fill="#3F3F3F"></path>
                    <g id="pricing-automation">
                        <mask id="mask-2" fill="white">
                            <use xlink:href="#path-1"></use>
                        </mask>
                        <circle stroke="#3D9991" stroke-width="2" cx="30" cy="30" r="31"></circle>
                        <text id="$" mask="url(#mask-2)" font-family="GothamRounded-Bold, Gotham Rounded" font-size="30" font-weight="bold" fill="#3D9991">
                            <tspan x="20" y="41">$</tspan>
                        </text>
                        <path d="M12.3571429,24.8550401 L12.3571429,24.8550401 L9.53466314,27.6775203 C9.19992786,28.0122551 8.657215,28.0122551 8.32247971,27.6775203 C7.98774486,27.342785 7.98774486,26.8000721 8.32247971,26.4653369 L12.608194,22.1796226 C12.9429293,21.8448877 13.4856421,21.8448877 13.8203774,22.1796226 L18.1060917,26.4653369 C18.4408266,26.8000721 18.4408266,27.342785 18.1060917,27.6775203 C17.7713564,28.0122551 17.2286436,28.0122551 16.8939083,27.6775203 L14.0714286,24.8550401 L14.0714286,38.2142857 C14.0714286,38.6876724 13.6876724,39.0714286 13.2142857,39.0714286 C12.740899,39.0714286 12.3571429,38.6876724 12.3571429,38.2142857 L12.3571429,24.8550401 Z M45.0714286,37.1449599 L45.0714286,23.7857143 C45.0714286,23.3123276 45.4551847,22.9285714 45.9285714,22.9285714 C46.4019581,22.9285714 46.7857143,23.3123276 46.7857143,23.7857143 L46.7857143,37.1449599 L49.608194,34.3224797 C49.9429293,33.9877449 50.4856421,33.9877449 50.8203774,34.3224797 C51.1551123,34.657215 51.1551123,35.1999279 50.8203774,35.5346631 L46.5346631,39.8203774 C46.1999279,40.1551123 45.657215,40.1551123 45.3224797,39.8203774 L41.0367654,35.5346631 C40.7020306,35.1999279 40.7020306,34.657215 41.0367654,34.3224797 C41.3715007,33.9877449 41.9142136,33.9877449 42.2489489,34.3224797 L45.0714286,37.1449599 L45.0714286,37.1449599 Z" id="Shape" fill="#B1D6D3" fill-rule="nonzero" mask="url(#mask-2)" transform="translate(29.571429, 31.000000) rotate(-180.000000) translate(-29.571429, -31.000000) "></path>
                    </g>
                </g>
            </g>
        </g>
    </g>
</svg>