<?xml version="1.0" encoding="UTF-8"?>
<svg width="292px" height="64px" viewBox="0 0 292 64" version="1.1" xmlns="http://www.w3.org/2000/svg" xmlns:xlink="http://www.w3.org/1999/xlink">
    <!-- Generator: Sketch 47 (45396) - http://www.bohemiancoding.com/sketch -->
    <title>icons/underwriting-micro-segmentation</title>
    <desc>Created with Sketch.</desc>
    <defs>
        <circle id="path-1" cx="30" cy="30" r="30"></circle>
        <ellipse id="path-3" cx="19" cy="5.41935484" rx="5.42857143" ry="5.41935484"></ellipse>
        <filter x="-64.5%" y="-46.1%" width="228.9%" height="229.2%" filterUnits="objectBoundingBox" id="filter-4">
            <feOffset dx="0" dy="2" in="SourceAlpha" result="shadowOffsetOuter1"></feOffset>
            <feGaussianBlur stdDeviation="2" in="shadowOffsetOuter1" result="shadowBlurOuter1"></feGaussianBlur>
            <feColorMatrix values="0 0 0 0 0   0 0 0 0 0   0 0 0 0 0  0 0 0 0.05 0" type="matrix" in="shadowBlurOuter1"></feColorMatrix>
        </filter>
    </defs>
    <g id="Icons" stroke="none" stroke-width="1" fill="none" fill-rule="evenodd">
        <g id="Artboard" transform="translate(-199.000000, -264.000000)">
            <g id="icons/underwriting-micro-segmentation" transform="translate(201.000000, 265.000000)">
                <g>
                    <path d="M87.03125,11.78125 L87.03125,21.1464844 C87.03125,22.7024817 86.5446012,23.9329382 85.5712891,24.8378906 C84.5979769,25.7428431 83.2682376,26.1953125 81.5820312,26.1953125 C79.9218667,26.1953125 78.6035205,25.7558638 77.6269531,24.8769531 C76.6503857,23.9980425 76.1523438,22.7903723 76.1328125,21.2539062 L76.1328125,11.78125 L79.0625,11.78125 L79.0625,21.1660156 C79.0625,22.0970099 79.2854795,22.775714 79.7314453,23.2021484 C80.1774111,23.6285829 80.7942669,23.8417969 81.5820312,23.8417969 C83.2291749,23.8417969 84.0657551,22.9759201 84.0917969,21.2441406 L84.0917969,11.78125 L87.03125,11.78125 Z M100.996094,26 L98.0664062,26 L92.3632812,16.6445312 L92.3632812,26 L89.4335938,26 L89.4335938,11.78125 L92.3632812,11.78125 L98.0761719,21.15625 L98.0761719,11.78125 L100.996094,11.78125 L100.996094,26 Z M103.554688,26 L103.554688,11.78125 L107.929688,11.78125 C109.179694,11.78125 110.297847,12.0628227 111.28418,12.6259766 C112.270513,13.1891304 113.040362,13.9899037 113.59375,15.0283203 C114.147138,16.066737 114.423828,17.2467382 114.423828,18.5683594 L114.423828,19.2226562 C114.423828,20.5442774 114.152021,21.7193959 113.608398,22.7480469 C113.064776,23.7766979 112.298182,24.5742159 111.308594,25.140625 C110.319005,25.7070341 109.20248,25.9934896 107.958984,26 L103.554688,26 Z M106.484375,14.1542969 L106.484375,23.6464844 L107.900391,23.6464844 C109.04623,23.6464844 109.921872,23.2721392 110.527344,22.5234375 C111.132816,21.7747358 111.442057,20.703783 111.455078,19.3105469 L111.455078,18.5585938 C111.455078,17.113274 111.155602,16.0179074 110.556641,15.2724609 C109.957679,14.5270145 109.082037,14.1542969 107.929688,14.1542969 L106.484375,14.1542969 Z M125.107422,19.8378906 L119.482422,19.8378906 L119.482422,23.6464844 L126.083984,23.6464844 L126.083984,26 L116.552734,26 L116.552734,11.78125 L126.064453,11.78125 L126.064453,14.1542969 L119.482422,14.1542969 L119.482422,17.5429688 L125.107422,17.5429688 L125.107422,19.8378906 Z M133.066406,20.7949219 L130.732422,20.7949219 L130.732422,26 L127.802734,26 L127.802734,11.78125 L133.085938,11.78125 C134.765633,11.78125 136.061193,12.1555952 136.972656,12.9042969 C137.884119,13.6529985 138.339844,14.7109307 138.339844,16.078125 C138.339844,17.0481819 138.129885,17.8570931 137.709961,18.5048828 C137.290037,19.1526725 136.65365,19.6686179 135.800781,20.0527344 L138.876953,25.8632812 L138.876953,26 L135.732422,26 L133.066406,20.7949219 Z M130.732422,18.421875 L133.095703,18.421875 C133.831384,18.421875 134.40104,18.2347024 134.804688,17.8603516 C135.208335,17.4860007 135.410156,16.9700554 135.410156,16.3125 C135.410156,15.6419237 135.219728,15.1145853 134.838867,14.7304688 C134.458006,14.3463522 133.873702,14.1542969 133.085938,14.1542969 L130.732422,14.1542969 L130.732422,18.421875 Z M151.640625,21.8984375 L153.554688,11.78125 L156.474609,11.78125 L153.320312,26 L150.371094,26 L148.056641,16.4882812 L145.742188,26 L142.792969,26 L139.638672,11.78125 L142.558594,11.78125 L144.482422,21.8789062 L146.826172,11.78125 L149.306641,11.78125 L151.640625,21.8984375 Z M163.320312,20.7949219 L160.986328,20.7949219 L160.986328,26 L158.056641,26 L158.056641,11.78125 L163.339844,11.78125 C165.01954,11.78125 166.3151,12.1555952 167.226562,12.9042969 C168.138025,13.6529985 168.59375,14.7109307 168.59375,16.078125 C168.59375,17.0481819 168.383791,17.8570931 167.963867,18.5048828 C167.543943,19.1526725 166.907556,19.6686179 166.054688,20.0527344 L169.130859,25.8632812 L169.130859,26 L165.986328,26 L163.320312,20.7949219 Z M160.986328,18.421875 L163.349609,18.421875 C164.08529,18.421875 164.654946,18.2347024 165.058594,17.8603516 C165.462242,17.4860007 165.664062,16.9700554 165.664062,16.3125 C165.664062,15.6419237 165.473635,15.1145853 165.092773,14.7304688 C164.711912,14.3463522 164.127608,14.1542969 163.339844,14.1542969 L160.986328,14.1542969 L160.986328,18.421875 Z M173.935547,26 L171.005859,26 L171.005859,11.78125 L173.935547,11.78125 L173.935547,26 Z M187.070312,14.1542969 L182.714844,14.1542969 L182.714844,26 L179.785156,26 L179.785156,14.1542969 L175.488281,14.1542969 L175.488281,11.78125 L187.070312,11.78125 L187.070312,14.1542969 Z M191.855469,26 L188.925781,26 L188.925781,11.78125 L191.855469,11.78125 L191.855469,26 Z M206.132812,26 L203.203125,26 L197.5,16.6445312 L197.5,26 L194.570312,26 L194.570312,11.78125 L197.5,11.78125 L203.212891,21.15625 L203.212891,11.78125 L206.132812,11.78125 L206.132812,26 Z M219.941406,24.203125 C219.41406,24.8346386 218.668625,25.3245425 217.705078,25.6728516 C216.741532,26.0211606 215.673834,26.1953125 214.501953,26.1953125 C213.271478,26.1953125 212.192387,25.9267605 211.264648,25.3896484 C210.336909,24.8525364 209.620771,24.0729218 209.116211,23.0507812 C208.611651,22.0286407 208.352865,20.8274809 208.339844,19.4472656 L208.339844,18.4804688 C208.339844,17.0611908 208.579099,15.832362 209.057617,14.7939453 C209.536135,13.7555287 210.226232,12.9612658 211.12793,12.4111328 C212.029627,11.8609999 213.085931,11.5859375 214.296875,11.5859375 C215.983081,11.5859375 217.301428,11.9879517 218.251953,12.7919922 C219.202479,13.5960327 219.765624,14.7662684 219.941406,16.3027344 L217.089844,16.3027344 C216.959635,15.4889282 216.671552,14.8932311 216.225586,14.515625 C215.77962,14.1380189 215.16602,13.9492188 214.384766,13.9492188 C213.388667,13.9492188 212.630211,14.323564 212.109375,15.0722656 C211.588539,15.8209673 211.32487,16.9342374 211.318359,18.4121094 L211.318359,19.3203125 C211.318359,20.8112054 211.60156,21.9374962 212.167969,22.6992188 C212.734378,23.4609413 213.564448,23.8417969 214.658203,23.8417969 C215.758469,23.8417969 216.542966,23.6074242 217.011719,23.1386719 L217.011719,20.6875 L214.345703,20.6875 L214.345703,18.5292969 L219.941406,18.5292969 L219.941406,24.203125 Z M83.6523438,48.3007812 L83.7109375,48.3007812 L89.0039062,35.78125 L90.4296875,35.78125 L90.4296875,50 L89.2578125,50 L89.2578125,38.0566406 L89.1992188,38.046875 L84.1015625,50 L83.2617188,50 L78.046875,37.7539062 L77.9882812,37.7636719 L77.9882812,50 L76.8164062,50 L76.8164062,35.78125 L78.3789062,35.78125 L83.6523438,48.3007812 Z M95.5371094,50 L94.3652344,50 L94.3652344,35.78125 L95.5371094,35.78125 L95.5371094,50 Z M109.267578,45.5566406 L109.287109,45.6152344 C109.313151,47.0084705 108.857427,48.1217406 107.919922,48.9550781 C106.982417,49.7884156 105.751961,50.2050781 104.228516,50.2050781 C102.646476,50.2050781 101.370448,49.6337948 100.400391,48.4912109 C99.4303337,47.3486271 98.9453125,45.8691497 98.9453125,44.0527344 L98.9453125,41.7382812 C98.9453125,39.9283764 99.4303337,38.448899 100.400391,37.2998047 C101.370448,36.1507104 102.646476,35.5761719 104.228516,35.5761719 C105.771492,35.5761719 107.006831,35.9830688 107.93457,36.796875 C108.862309,37.6106812 109.313151,38.7304616 109.287109,40.15625 L109.267578,40.2148438 L108.173828,40.2148438 C108.173828,39.0690047 107.823897,38.1754589 107.124023,37.5341797 C106.42415,36.8929004 105.458991,36.5722656 104.228516,36.5722656 C102.98502,36.5722656 101.987308,37.0540316 101.235352,38.0175781 C100.483395,38.9811246 100.107422,40.2148362 100.107422,41.71875 L100.107422,44.0527344 C100.107422,45.5761795 100.483395,46.8180291 101.235352,47.7783203 C101.987308,48.7386116 102.98502,49.21875 104.228516,49.21875 C105.458991,49.21875 106.42415,48.9062531 107.124023,48.28125 C107.823897,47.6562469 108.173828,46.7480528 108.173828,45.5566406 L109.267578,45.5566406 Z M113.4375,43.5742188 L113.4375,50 L112.265625,50 L112.265625,35.7910156 L117.001953,35.7910156 C118.525398,35.7910156 119.694006,36.1246711 120.507812,36.7919922 C121.321619,37.4593132 121.728516,38.4342384 121.728516,39.7167969 C121.728516,40.472009 121.512046,41.147458 121.079102,41.7431641 C120.646157,42.3388702 120.032556,42.7734361 119.238281,43.046875 C120.117192,43.2682303 120.750324,43.6637341 121.137695,44.2333984 C121.525067,44.8030627 121.71875,45.5175738 121.71875,46.3769531 L121.71875,47.7148438 C121.71875,48.1575543 121.770833,48.5546857 121.875,48.90625 C121.979167,49.2578143 122.151692,49.5442697 122.392578,49.765625 L122.392578,50 L121.201172,50 C120.960285,49.7656238 120.791016,49.4368511 120.693359,49.0136719 C120.595703,48.5904927 120.546875,48.1510439 120.546875,47.6953125 L120.546875,46.3964844 C120.546875,45.5240842 120.265302,44.8356145 119.702148,44.3310547 C119.138995,43.8264949 118.35287,43.5742188 117.34375,43.5742188 L113.4375,43.5742188 Z M113.4375,42.578125 L116.865234,42.578125 C118.147793,42.578125 119.085283,42.3193385 119.677734,41.8017578 C120.270185,41.2841771 120.566406,40.5859419 120.566406,39.7070312 C120.566406,38.7695266 120.271813,38.0485051 119.682617,37.5439453 C119.093422,37.0393855 118.199876,36.7871094 117.001953,36.7871094 L113.4375,36.7871094 L113.4375,42.578125 Z M135.771484,44.0527344 C135.771484,45.8886811 135.26856,47.3730412 134.262695,48.5058594 C133.256831,49.6386775 131.907561,50.2050781 130.214844,50.2050781 C128.548169,50.2050781 127.218429,49.6386775 126.225586,48.5058594 C125.232742,47.3730412 124.736328,45.8886811 124.736328,44.0527344 L124.736328,41.7382812 C124.736328,39.908845 125.231115,38.4244849 126.220703,37.2851562 C127.210291,36.1458276 128.538403,35.5761719 130.205078,35.5761719 C131.897795,35.5761719 133.248693,36.1458276 134.257812,37.2851562 C135.266932,38.4244849 135.771484,39.908845 135.771484,41.7382812 L135.771484,44.0527344 Z M134.609375,41.71875 C134.609375,40.182284 134.220381,38.9453172 133.442383,38.0078125 C132.664384,37.0703078 131.585293,36.6015625 130.205078,36.6015625 C128.850905,36.6015625 127.796228,37.0703078 127.041016,38.0078125 C126.285804,38.9453172 125.908203,40.182284 125.908203,41.71875 L125.908203,44.0527344 C125.908203,45.6022213 126.287431,46.8456984 127.045898,47.7832031 C127.804366,48.7207078 128.86067,49.1894531 130.214844,49.1894531 C131.601569,49.1894531 132.68066,48.7223354 133.452148,47.7880859 C134.223637,46.8538365 134.609375,45.6087317 134.609375,44.0527344 L134.609375,41.71875 Z M144.013672,44.4335938 L138.251953,44.4335938 L138.251953,43.4472656 L144.013672,43.4472656 L144.013672,44.4335938 Z M155.214844,46.5429688 C155.214844,45.8137984 154.925133,45.2115909 154.345703,44.7363281 C153.766273,44.2610653 152.78321,43.8151062 151.396484,43.3984375 C149.87955,42.9817688 148.72559,42.4625682 147.93457,41.8408203 C147.143551,41.2190724 146.748047,40.3743543 146.748047,39.3066406 C146.748047,38.2193956 147.190751,37.3258499 148.076172,36.6259766 C148.961593,35.9261033 150.091139,35.5761719 151.464844,35.5761719 C152.910163,35.5761719 154.072261,35.9716757 154.951172,36.7626953 C155.830083,37.5537149 156.256511,38.5579366 156.230469,39.7753906 L156.210938,39.8339844 L155.117188,39.8339844 C155.117188,38.8964797 154.777022,38.1184927 154.09668,37.5 C153.416338,36.8815073 152.539068,36.5722656 151.464844,36.5722656 C150.358067,36.5722656 149.490563,36.8343073 148.862305,37.3583984 C148.234046,37.8824896 147.919922,38.5253868 147.919922,39.2871094 C147.919922,40.0097692 148.20475,40.6038388 148.774414,41.0693359 C149.344078,41.5348331 150.3483,41.969399 151.787109,42.3730469 C153.284513,42.809247 154.427079,43.346351 155.214844,43.984375 C156.002608,44.622399 156.396484,45.4687447 156.396484,46.5234375 C156.396484,47.6302139 155.935877,48.5205044 155.014648,49.1943359 C154.09342,49.8681674 152.93295,50.2050781 151.533203,50.2050781 C150.133457,50.2050781 148.912766,49.8486364 147.871094,49.1357422 C146.829422,48.422848 146.32487,47.3828193 146.357422,46.015625 L146.376953,45.9570312 L147.460938,45.9570312 C147.460938,47.0572972 147.874345,47.8759739 148.701172,48.4130859 C149.527999,48.950198 150.472,49.21875 151.533203,49.21875 C152.620448,49.21875 153.505856,48.9697291 154.189453,48.4716797 C154.87305,47.9736303 155.214844,47.3307331 155.214844,46.5429688 Z M166.816406,43.1152344 L160.439453,43.1152344 L160.439453,49.0136719 L167.8125,49.0136719 L167.8125,50 L159.267578,50 L159.267578,35.78125 L167.763672,35.78125 L167.763672,36.7773438 L160.439453,36.7773438 L160.439453,42.1191406 L166.816406,42.1191406 L166.816406,43.1152344 Z M180.400391,48.0859375 C180.087889,48.600263 179.510095,49.082029 178.666992,49.53125 C177.823889,49.980471 176.761074,50.2050781 175.478516,50.2050781 C173.844393,50.2050781 172.506516,49.6419327 171.464844,48.515625 C170.423172,47.3893173 169.902344,45.9309985 169.902344,44.140625 L169.902344,41.5332031 C169.902344,39.7753818 170.406896,38.3431045 171.416016,37.2363281 C172.425135,36.1295518 173.730461,35.5761719 175.332031,35.5761719 C176.875008,35.5761719 178.100581,35.9830688 179.008789,36.796875 C179.916997,37.6106812 180.358073,38.6458271 180.332031,39.9023438 L180.302734,39.9609375 L179.228516,39.9609375 C179.228516,38.9778597 178.889977,38.1673209 178.212891,37.5292969 C177.535804,36.8912729 176.575527,36.5722656 175.332031,36.5722656 C174.055983,36.5722656 173.027348,37.0345006 172.246094,37.9589844 C171.46484,38.8834682 171.074219,40.0683521 171.074219,41.5136719 L171.074219,44.140625 C171.074219,45.6250074 171.481116,46.8424432 172.294922,47.7929688 C173.108728,48.7434943 174.169915,49.21875 175.478516,49.21875 C176.474614,49.21875 177.288408,49.0690119 177.919922,48.7695312 C178.551435,48.4700506 178.990884,48.1217468 179.238281,47.7246094 L179.238281,44.0820312 L175.410156,44.0820312 L175.410156,43.0859375 L180.400391,43.0859375 L180.400391,48.0859375 Z M190.898438,48.3007812 L190.957031,48.3007812 L196.25,35.78125 L197.675781,35.78125 L197.675781,50 L196.503906,50 L196.503906,38.0566406 L196.445312,38.046875 L191.347656,50 L190.507812,50 L185.292969,37.7539062 L185.234375,37.7636719 L185.234375,50 L184.0625,50 L184.0625,35.78125 L185.625,35.78125 L190.898438,48.3007812 Z M208.857422,43.1152344 L202.480469,43.1152344 L202.480469,49.0136719 L209.853516,49.0136719 L209.853516,50 L201.308594,50 L201.308594,35.78125 L209.804688,35.78125 L209.804688,36.7773438 L202.480469,36.7773438 L202.480469,42.1191406 L208.857422,42.1191406 L208.857422,43.1152344 Z M222.8125,50 L221.640625,50 L213.564453,37.8320312 L213.505859,37.8417969 L213.505859,50 L212.333984,50 L212.333984,35.78125 L213.505859,35.78125 L221.582031,47.9199219 L221.640625,47.9101562 L221.640625,35.78125 L222.8125,35.78125 L222.8125,50 Z M235.830078,36.7773438 L230.986328,36.7773438 L230.986328,50 L229.824219,50 L229.824219,36.7773438 L224.814453,36.7773438 L224.814453,35.78125 L235.830078,35.78125 L235.830078,36.7773438 Z M244.785156,46.0351562 L238.544922,46.0351562 L237.109375,50 L235.898438,50 L241.123047,35.78125 L242.226562,35.78125 L247.412109,50 L246.201172,50 L244.785156,46.0351562 Z M238.916016,44.9902344 L244.404297,44.9902344 L241.708984,37.4511719 L241.650391,37.4511719 L238.916016,44.9902344 Z M258.017578,36.7773438 L253.173828,36.7773438 L253.173828,50 L252.011719,50 L252.011719,36.7773438 L247.001953,36.7773438 L247.001953,35.78125 L258.017578,35.78125 L258.017578,36.7773438 Z M261.777344,50 L260.605469,50 L260.605469,35.78125 L261.777344,35.78125 L261.777344,50 Z M276.142578,44.0527344 C276.142578,45.8886811 275.639653,47.3730412 274.633789,48.5058594 C273.627925,49.6386775 272.278654,50.2050781 270.585938,50.2050781 C268.919263,50.2050781 267.589523,49.6386775 266.59668,48.5058594 C265.603836,47.3730412 265.107422,45.8886811 265.107422,44.0527344 L265.107422,41.7382812 C265.107422,39.908845 265.602209,38.4244849 266.591797,37.2851562 C267.581385,36.1458276 268.909497,35.5761719 270.576172,35.5761719 C272.268889,35.5761719 273.619787,36.1458276 274.628906,37.2851562 C275.638026,38.4244849 276.142578,39.908845 276.142578,41.7382812 L276.142578,44.0527344 Z M274.980469,41.71875 C274.980469,40.182284 274.591475,38.9453172 273.813477,38.0078125 C273.035478,37.0703078 271.956387,36.6015625 270.576172,36.6015625 C269.221998,36.6015625 268.167321,37.0703078 267.412109,38.0078125 C266.656897,38.9453172 266.279297,40.182284 266.279297,41.71875 L266.279297,44.0527344 C266.279297,45.6022213 266.658525,46.8456984 267.416992,47.7832031 C268.17546,48.7207078 269.231764,49.1894531 270.585938,49.1894531 C271.972663,49.1894531 273.051754,48.7223354 273.823242,47.7880859 C274.59473,46.8538365 274.980469,45.6087317 274.980469,44.0527344 L274.980469,41.71875 Z M289.648438,50 L288.476562,50 L280.400391,37.8320312 L280.341797,37.8417969 L280.341797,50 L279.169922,50 L279.169922,35.78125 L280.341797,35.78125 L288.417969,47.9199219 L288.476562,47.9101562 L288.476562,35.78125 L289.648438,35.78125 L289.648438,50 Z" id="Underwriting-Micro-s" fill="#3F3F3F"></path>
                    <g id="underwriting-microsegmentation">
                        <g id="Group">
                            <circle id="Oval" stroke="#7FA5BB" stroke-width="2" cx="30" cy="31" r="31"></circle>
                            <g id="Rectangle-6">
                                <mask id="mask-2" fill="white">
                                    <use xlink:href="#path-1"></use>
                                </mask>
                                <g id="Mask"></g>
                                <path d="M40.4693878,37 L23.4081633,37" id="Path-3" stroke="#BBD6E2" stroke-width="2" mask="url(#mask-2)"></path>
                                <g id="Group-5" mask="url(#mask-2)">
                                    <g transform="translate(11.000000, 16.000000)">
                                        <g id="Group-4" stroke-width="1" fill-rule="evenodd" transform="translate(12.319705, 16.592588) rotate(-15.000000) translate(-12.319705, -16.592588) translate(2.819705, 7.092588)">
                                            <path d="M18.0952381,0 L6.34359508,11.7316912" id="Path-3" stroke="#BDD8E4" stroke-width="2"></path>
                                            <ellipse id="Oval-4" fill="#BAD5E1" cx="5.42857143" cy="12.6451613" rx="5.42857143" ry="5.41935484"></ellipse>
                                        </g>
                                        <g id="Group-4" stroke-width="1" fill-rule="evenodd" transform="translate(25.680295, 16.592588) scale(-1, 1) rotate(-15.000000) translate(-25.680295, -16.592588) translate(16.180295, 7.092588)">
                                            <path d="M18.0952381,0 L6.34359508,11.7316912" id="Path-3" stroke="#BDD8E4" stroke-width="2"></path>
                                            <ellipse id="Oval-4" fill="#BAD5E1" cx="5.42857143" cy="12.6451613" rx="5.42857143" ry="5.41935484"></ellipse>
                                        </g>
                                        <g id="Oval-4">
                                            <use fill="black" fill-opacity="1" filter="url(#filter-4)" xlink:href="#path-3"></use>
                                            <use fill="#5B9DBB" fill-rule="evenodd" xlink:href="#path-3"></use>
                                        </g>
                                    </g>
                                </g>
                            </g>
                        </g>
                    </g>
                </g>
            </g>
        </g>
    </g>
</svg>