<?xml version="1.0" encoding="UTF-8"?>
<svg width="248px" height="64px" viewBox="0 0 248 64" version="1.1" xmlns="http://www.w3.org/2000/svg" xmlns:xlink="http://www.w3.org/1999/xlink">
    <!-- Generator: Sketch 47 (45396) - http://www.bohemiancoding.com/sketch -->
    <title>icons / predictive-lead-generation</title>
    <desc>Created with Sketch.</desc>
    <defs>
        <circle id="path-1" cx="28" cy="28" r="28"></circle>
    </defs>
    <g id="Icons" stroke="none" stroke-width="1" fill="none" fill-rule="evenodd">
        <g id="Artboard" transform="translate(-749.000000, -103.000000)">
            <g id="icons-/-predictive-lead-generation" transform="translate(751.000000, 105.000000)">
                <g id="predictive-lead-generation">
                    <circle id="Oval" stroke="#FFFFFF" stroke-width="2" cx="30" cy="30" r="31"></circle>
                    <g id="Rectangle-6" transform="translate(2.000000, 2.000000)">
                        <mask id="mask-2" fill="white">
                            <use xlink:href="#path-1"></use>
                        </mask>
                        <g id="Mask"></g>
                        <g id="Group-2" mask="url(#mask-2)">
                            <g transform="translate(3.000000, 22.000000)">
                                <g id="Group-9" transform="translate(0.000000, 7.000000)" opacity="0.4">
                                    <rect id="Rectangle-8" fill="#FFFFFF" x="0" y="14" width="18" height="24" rx="9"></rect>
                                    <circle id="Oval-2" fill="#FFFFFF" cx="9.5" cy="5.5" r="5.5"></circle>
                                </g>
                                <g id="Group-9" transform="translate(33.000000, 7.000000)" fill-opacity="0.4">
                                    <rect id="Rectangle-8" fill="#FFFFFF" x="0" y="14" width="18" height="24" rx="9"></rect>
                                    <circle id="Oval-2" fill="#FFFFFF" cx="9.5" cy="5.5" r="5.5"></circle>
                                </g>
                                <g id="Group-7" transform="translate(13.000000, 0.000000)">
                                    <rect id="Rectangle-8" fill="#FFFFFF" x="0" y="15.8333333" width="25" height="33.3333333" rx="12.5"></rect>
                                    <circle id="Oval-2" fill="#FFFFFF" cx="12.5" cy="6.66666667" r="6.66666667"></circle>
                                </g>
                            </g>
                        </g>
                    </g>
                </g>
                <path d="M80.1992188,20.9902344 L80.1992188,26 L77.2695312,26 L77.2695312,11.78125 L82.8164062,11.78125 C83.8841199,11.78125 84.8232381,11.9765605 85.6337891,12.3671875 C86.44434,12.7578145 87.0677062,13.3128219 87.5039062,14.0322266 C87.9401063,14.7516312 88.1582031,15.5703079 88.1582031,16.4882812 C88.1582031,17.8815174 87.6813199,18.9801392 86.7275391,19.7841797 C85.7737583,20.5882202 84.4537845,20.9902344 82.7675781,20.9902344 L80.1992188,20.9902344 Z M80.1992188,18.6171875 L82.8164062,18.6171875 C83.5911497,18.6171875 84.1819641,18.4348977 84.5888672,18.0703125 C84.9957703,17.7057273 85.1992188,17.1848992 85.1992188,16.5078125 C85.1992188,15.8111944 84.9941427,15.248049 84.5839844,14.8183594 C84.1738261,14.3886697 83.6074255,14.1673178 82.8847656,14.1542969 L80.1992188,14.1542969 L80.1992188,18.6171875 Z M95.4335938,20.7949219 L93.0996094,20.7949219 L93.0996094,26 L90.1699219,26 L90.1699219,11.78125 L95.453125,11.78125 C97.1328209,11.78125 98.4283809,12.1555952 99.3398438,12.9042969 C100.251307,13.6529985 100.707031,14.7109307 100.707031,16.078125 C100.707031,17.0481819 100.497072,17.8570931 100.077148,18.5048828 C99.6572245,19.1526725 99.0208376,19.6686179 98.1679688,20.0527344 L101.244141,25.8632812 L101.244141,26 L98.0996094,26 L95.4335938,20.7949219 Z M93.0996094,18.421875 L95.4628906,18.421875 C96.1985714,18.421875 96.7682271,18.2347024 97.171875,17.8603516 C97.5755229,17.4860007 97.7773438,16.9700554 97.7773438,16.3125 C97.7773438,15.6419237 97.586916,15.1145853 97.2060547,14.7304688 C96.8251934,14.3463522 96.2408894,14.1542969 95.453125,14.1542969 L93.0996094,14.1542969 L93.0996094,18.421875 Z M111.488281,19.8378906 L105.863281,19.8378906 L105.863281,23.6464844 L112.464844,23.6464844 L112.464844,26 L102.933594,26 L102.933594,11.78125 L112.445312,11.78125 L112.445312,14.1542969 L105.863281,14.1542969 L105.863281,17.5429688 L111.488281,17.5429688 L111.488281,19.8378906 Z M114.183594,26 L114.183594,11.78125 L118.558594,11.78125 C119.8086,11.78125 120.926753,12.0628227 121.913086,12.6259766 C122.899419,13.1891304 123.669268,13.9899037 124.222656,15.0283203 C124.776044,16.066737 125.052734,17.2467382 125.052734,18.5683594 L125.052734,19.2226562 C125.052734,20.5442774 124.780927,21.7193959 124.237305,22.7480469 C123.693682,23.7766979 122.927088,24.5742159 121.9375,25.140625 C120.947912,25.7070341 119.831386,25.9934896 118.587891,26 L114.183594,26 Z M117.113281,14.1542969 L117.113281,23.6464844 L118.529297,23.6464844 C119.675136,23.6464844 120.550778,23.2721392 121.15625,22.5234375 C121.761722,21.7747358 122.070963,20.703783 122.083984,19.3105469 L122.083984,18.5585938 C122.083984,17.113274 121.784508,16.0179074 121.185547,15.2724609 C120.586586,14.5270145 119.710943,14.1542969 118.558594,14.1542969 L117.113281,14.1542969 Z M130.296875,26 L127.367188,26 L127.367188,11.78125 L130.296875,11.78125 L130.296875,26 Z M144.173828,21.2636719 C144.06315,22.7936274 143.498377,23.9980425 142.479492,24.8769531 C141.460607,25.7558638 140.117847,26.1953125 138.451172,26.1953125 C136.628246,26.1953125 135.194341,25.5817119 134.149414,24.3544922 C133.104487,23.1272725 132.582031,21.442719 132.582031,19.3007812 L132.582031,18.4316406 C132.582031,17.0644463 132.822914,15.8600312 133.304688,14.8183594 C133.786461,13.7766875 134.47493,12.9775418 135.370117,12.4208984 C136.265304,11.864255 137.305333,11.5859375 138.490234,11.5859375 C140.130868,11.5859375 141.452469,12.0253862 142.455078,12.9042969 C143.457687,13.7832075 144.037109,15.0169191 144.193359,16.6054688 L141.263672,16.6054688 C141.192057,15.6874954 140.936526,15.021812 140.49707,14.6083984 C140.057615,14.1949849 139.388676,13.9882812 138.490234,13.9882812 C137.513667,13.9882812 136.78288,14.3382126 136.297852,15.0380859 C135.812823,15.7379592 135.563802,16.8235604 135.550781,18.2949219 L135.550781,19.3691406 C135.550781,20.9056066 135.783526,22.0286423 136.249023,22.7382812 C136.714521,23.4479202 137.448563,23.8027344 138.451172,23.8027344 C139.356124,23.8027344 140.031573,23.5960307 140.477539,23.1826172 C140.923505,22.7692037 141.179036,22.1295616 141.244141,21.2636719 L144.173828,21.2636719 Z M156.517578,14.1542969 L152.162109,14.1542969 L152.162109,26 L149.232422,26 L149.232422,14.1542969 L144.935547,14.1542969 L144.935547,11.78125 L156.517578,11.78125 L156.517578,14.1542969 Z M161.302734,26 L158.373047,26 L158.373047,11.78125 L161.302734,11.78125 L161.302734,26 Z M169.271484,22.4746094 L172.494141,11.78125 L175.755859,11.78125 L170.804688,26 L167.748047,26 L162.816406,11.78125 L166.068359,11.78125 L169.271484,22.4746094 Z M185.648438,19.8378906 L180.023438,19.8378906 L180.023438,23.6464844 L186.625,23.6464844 L186.625,26 L177.09375,26 L177.09375,11.78125 L186.605469,11.78125 L186.605469,14.1542969 L180.023438,14.1542969 L180.023438,17.5429688 L185.648438,17.5429688 L185.648438,19.8378906 Z M78.9882812,49.0136719 L86.3320312,49.0136719 L86.3320312,50 L77.8164062,50 L77.8164062,35.78125 L78.9882812,35.78125 L78.9882812,49.0136719 Z M96.3808594,43.1152344 L90.0039062,43.1152344 L90.0039062,49.0136719 L97.3769531,49.0136719 L97.3769531,50 L88.8320312,50 L88.8320312,35.78125 L97.328125,35.78125 L97.328125,36.7773438 L90.0039062,36.7773438 L90.0039062,42.1191406 L96.3808594,42.1191406 L96.3808594,43.1152344 Z M107.298828,46.0351562 L101.058594,46.0351562 L99.6230469,50 L98.4121094,50 L103.636719,35.78125 L104.740234,35.78125 L109.925781,50 L108.714844,50 L107.298828,46.0351562 Z M101.429688,44.9902344 L106.917969,44.9902344 L104.222656,37.4511719 L104.164062,37.4511719 L101.429688,44.9902344 Z M112.123047,50 L112.123047,35.78125 L116.458984,35.78125 C118.197274,35.78125 119.634434,36.3606713 120.770508,37.5195312 C121.906581,38.6783912 122.474609,40.1660065 122.474609,41.9824219 L122.474609,43.8085938 C122.474609,45.6250091 121.906581,47.1109968 120.770508,48.2666016 C119.634434,49.4222063 118.197274,50 116.458984,50 L112.123047,50 Z M113.294922,36.7773438 L113.294922,49.0136719 L116.458984,49.0136719 C117.865241,49.0136719 119.024084,48.5221403 119.935547,47.5390625 C120.84701,46.5559847 121.302734,45.3125075 121.302734,43.8085938 L121.302734,41.953125 C121.302734,40.4687426 120.845382,39.235031 119.930664,38.2519531 C119.015946,37.2688753 117.858731,36.7773438 116.458984,36.7773438 L113.294922,36.7773438 Z M140.550781,48.0859375 C140.23828,48.600263 139.660486,49.082029 138.817383,49.53125 C137.97428,49.980471 136.911465,50.2050781 135.628906,50.2050781 C133.994783,50.2050781 132.656906,49.6419327 131.615234,48.515625 C130.573562,47.3893173 130.052734,45.9309985 130.052734,44.140625 L130.052734,41.5332031 C130.052734,39.7753818 130.557287,38.3431045 131.566406,37.2363281 C132.575526,36.1295518 133.880851,35.5761719 135.482422,35.5761719 C137.025398,35.5761719 138.250972,35.9830688 139.15918,36.796875 C140.067387,37.6106812 140.508464,38.6458271 140.482422,39.9023438 L140.453125,39.9609375 L139.378906,39.9609375 C139.378906,38.9778597 139.040368,38.1673209 138.363281,37.5292969 C137.686195,36.8912729 136.725918,36.5722656 135.482422,36.5722656 C134.206374,36.5722656 133.177738,37.0345006 132.396484,37.9589844 C131.61523,38.8834682 131.224609,40.0683521 131.224609,41.5136719 L131.224609,44.140625 C131.224609,45.6250074 131.631506,46.8424432 132.445312,47.7929688 C133.259119,48.7434943 134.320306,49.21875 135.628906,49.21875 C136.625005,49.21875 137.438799,49.0690119 138.070312,48.7695312 C138.701826,48.4700506 139.141275,48.1217468 139.388672,47.7246094 L139.388672,44.0820312 L135.560547,44.0820312 L135.560547,43.0859375 L140.550781,43.0859375 L140.550781,48.0859375 Z M151.761719,43.1152344 L145.384766,43.1152344 L145.384766,49.0136719 L152.757812,49.0136719 L152.757812,50 L144.212891,50 L144.212891,35.78125 L152.708984,35.78125 L152.708984,36.7773438 L145.384766,36.7773438 L145.384766,42.1191406 L151.761719,42.1191406 L151.761719,43.1152344 Z M165.716797,50 L164.544922,50 L156.46875,37.8320312 L156.410156,37.8417969 L156.410156,50 L155.238281,50 L155.238281,35.78125 L156.410156,35.78125 L164.486328,47.9199219 L164.544922,47.9101562 L164.544922,35.78125 L165.716797,35.78125 L165.716797,50 Z M176.898438,43.1152344 L170.521484,43.1152344 L170.521484,49.0136719 L177.894531,49.0136719 L177.894531,50 L169.349609,50 L169.349609,35.78125 L177.845703,35.78125 L177.845703,36.7773438 L170.521484,36.7773438 L170.521484,42.1191406 L176.898438,42.1191406 L176.898438,43.1152344 Z M181.517578,43.5742188 L181.517578,50 L180.345703,50 L180.345703,35.7910156 L185.082031,35.7910156 C186.605476,35.7910156 187.774084,36.1246711 188.587891,36.7919922 C189.401697,37.4593132 189.808594,38.4342384 189.808594,39.7167969 C189.808594,40.472009 189.592125,41.147458 189.15918,41.7431641 C188.726235,42.3388702 188.112634,42.7734361 187.318359,43.046875 C188.19727,43.2682303 188.830402,43.6637341 189.217773,44.2333984 C189.605145,44.8030627 189.798828,45.5175738 189.798828,46.3769531 L189.798828,47.7148438 C189.798828,48.1575543 189.850911,48.5546857 189.955078,48.90625 C190.059245,49.2578143 190.23177,49.5442697 190.472656,49.765625 L190.472656,50 L189.28125,50 C189.040363,49.7656238 188.871094,49.4368511 188.773438,49.0136719 C188.675781,48.5904927 188.626953,48.1510439 188.626953,47.6953125 L188.626953,46.3964844 C188.626953,45.5240842 188.34538,44.8356145 187.782227,44.3310547 C187.219073,43.8264949 186.432948,43.5742188 185.423828,43.5742188 L181.517578,43.5742188 Z M181.517578,42.578125 L184.945312,42.578125 C186.227871,42.578125 187.165362,42.3193385 187.757812,41.8017578 C188.350263,41.2841771 188.646484,40.5859419 188.646484,39.7070312 C188.646484,38.7695266 188.351891,38.0485051 187.762695,37.5439453 C187.1735,37.0393855 186.279954,36.7871094 185.082031,36.7871094 L181.517578,36.7871094 L181.517578,42.578125 Z M200.863281,46.0351562 L194.623047,46.0351562 L193.1875,50 L191.976562,50 L197.201172,35.78125 L198.304688,35.78125 L203.490234,50 L202.279297,50 L200.863281,46.0351562 Z M194.994141,44.9902344 L200.482422,44.9902344 L197.787109,37.4511719 L197.728516,37.4511719 L194.994141,44.9902344 Z M214.095703,36.7773438 L209.251953,36.7773438 L209.251953,50 L208.089844,50 L208.089844,36.7773438 L203.080078,36.7773438 L203.080078,35.78125 L214.095703,35.78125 L214.095703,36.7773438 Z M217.855469,50 L216.683594,50 L216.683594,35.78125 L217.855469,35.78125 L217.855469,50 Z M232.220703,44.0527344 C232.220703,45.8886811 231.717778,47.3730412 230.711914,48.5058594 C229.70605,49.6386775 228.356779,50.2050781 226.664062,50.2050781 C224.997388,50.2050781 223.667648,49.6386775 222.674805,48.5058594 C221.681961,47.3730412 221.185547,45.8886811 221.185547,44.0527344 L221.185547,41.7382812 C221.185547,39.908845 221.680334,38.4244849 222.669922,37.2851562 C223.65951,36.1458276 224.987622,35.5761719 226.654297,35.5761719 C228.347014,35.5761719 229.697912,36.1458276 230.707031,37.2851562 C231.716151,38.4244849 232.220703,39.908845 232.220703,41.7382812 L232.220703,44.0527344 Z M231.058594,41.71875 C231.058594,40.182284 230.6696,38.9453172 229.891602,38.0078125 C229.113603,37.0703078 228.034512,36.6015625 226.654297,36.6015625 C225.300123,36.6015625 224.245446,37.0703078 223.490234,38.0078125 C222.735022,38.9453172 222.357422,40.182284 222.357422,41.71875 L222.357422,44.0527344 C222.357422,45.6022213 222.73665,46.8456984 223.495117,47.7832031 C224.253585,48.7207078 225.309889,49.1894531 226.664062,49.1894531 C228.050788,49.1894531 229.129879,48.7223354 229.901367,47.7880859 C230.672855,46.8538365 231.058594,45.6087317 231.058594,44.0527344 L231.058594,41.71875 Z M245.726562,50 L244.554688,50 L236.478516,37.8320312 L236.419922,37.8417969 L236.419922,50 L235.248047,50 L235.248047,35.78125 L236.419922,35.78125 L244.496094,47.9199219 L244.554688,47.9101562 L244.554688,35.78125 L245.726562,35.78125 L245.726562,50 Z" id="Predictive-Lead-Gene" fill="#FFFFFF"></path>
            </g>
        </g>
    </g>
</svg>