<?xml version="1.0" encoding="UTF-8"?>
<svg width="64px" height="64px" viewBox="0 0 64 64" version="1.1" xmlns="http://www.w3.org/2000/svg" xmlns:xlink="http://www.w3.org/1999/xlink">
    <!-- Generator: Sketch 47 (45396) - http://www.bohemiancoding.com/sketch -->
    <title>icons/pricing-automation</title>
    <desc>Created with Sketch.</desc>
    <defs>
        <circle id="path-1" cx="30" cy="30" r="30"></circle>
    </defs>
    <g id="Icons" stroke="none" stroke-width="1" fill="none" fill-rule="evenodd">
        <g id="Artboard" transform="translate(-1121.000000, -504.000000)">
            <g id="icons/pricing-automation" transform="translate(1123.000000, 506.000000)">
                <g id="pricing-automation">
                    <mask id="mask-2" fill="white">
                        <use xlink:href="#path-1"></use>
                    </mask>
                    <circle stroke="#5FAFAF" stroke-width="2" cx="30" cy="30" r="31"></circle>
                    <text id="$" mask="url(#mask-2)" font-family="GothamRounded-Bold, Gotham Rounded" font-size="30" font-weight="bold" fill="#5FAFAF">
                        <tspan x="20" y="41">$</tspan>
                    </text>
                    <path d="M12.3571429,24.8550401 L12.3571429,24.8550401 L9.53466314,27.6775203 C9.19992786,28.0122551 8.657215,28.0122551 8.32247971,27.6775203 C7.98774486,27.342785 7.98774486,26.8000721 8.32247971,26.4653369 L12.608194,22.1796226 C12.9429293,21.8448877 13.4856421,21.8448877 13.8203774,22.1796226 L18.1060917,26.4653369 C18.4408266,26.8000721 18.4408266,27.342785 18.1060917,27.6775203 C17.7713564,28.0122551 17.2286436,28.0122551 16.8939083,27.6775203 L14.0714286,24.8550401 L14.0714286,38.2142857 C14.0714286,38.6876724 13.6876724,39.0714286 13.2142857,39.0714286 C12.740899,39.0714286 12.3571429,38.6876724 12.3571429,38.2142857 L12.3571429,24.8550401 Z M45.0714286,37.1449599 L45.0714286,23.7857143 C45.0714286,23.3123276 45.4551847,22.9285714 45.9285714,22.9285714 C46.4019581,22.9285714 46.7857143,23.3123276 46.7857143,23.7857143 L46.7857143,37.1449599 L49.608194,34.3224797 C49.9429293,33.9877449 50.4856421,33.9877449 50.8203774,34.3224797 C51.1551123,34.657215 51.1551123,35.1999279 50.8203774,35.5346631 L46.5346631,39.8203774 C46.1999279,40.1551123 45.657215,40.1551123 45.3224797,39.8203774 L41.0367654,35.5346631 C40.7020306,35.1999279 40.7020306,34.657215 41.0367654,34.3224797 C41.3715007,33.9877449 41.9142136,33.9877449 42.2489489,34.3224797 L45.0714286,37.1449599 L45.0714286,37.1449599 Z" id="Shape" fill="#5FAFAF" fill-rule="nonzero" opacity="0.5" mask="url(#mask-2)" transform="translate(29.571429, 31.000000) rotate(-180.000000) translate(-29.571429, -31.000000) "></path>
                </g>
            </g>
        </g>
    </g>
</svg>