<?xml version="1.0" encoding="UTF-8"?>
<svg width="227px" height="64px" viewBox="0 0 227 64" version="1.1" xmlns="http://www.w3.org/2000/svg" xmlns:xlink="http://www.w3.org/1999/xlink">
    <!-- Generator: Sketch 47 (45396) - http://www.bohemiancoding.com/sketch -->
    <title>icons/broker-benchmarking</title>
    <desc>Created with Sketch.</desc>
    <defs>
        <circle id="path-1" cx="30" cy="30" r="30"></circle>
    </defs>
    <g id="Icons" stroke="none" stroke-width="1" fill="none" fill-rule="evenodd">
        <g id="Artboard" transform="translate(-749.000000, -344.000000)">
            <g id="icons/broker-benchmarking" transform="translate(751.000000, 346.000000)">
                <path d="M75.2695312,26 L75.2695312,11.78125 L80.25,11.78125 C81.975269,11.78125 83.2838497,12.1116503 84.1757812,12.7724609 C85.0677128,13.4332715 85.5136719,14.4016863 85.5136719,15.6777344 C85.5136719,16.3743524 85.3346372,16.9879531 84.9765625,17.5185547 C84.6184878,18.0491563 84.1204459,18.4381498 83.4824219,18.6855469 C84.2115922,18.8678395 84.7861307,19.2356743 85.2060547,19.7890625 C85.6259787,20.3424507 85.8359375,21.0195272 85.8359375,21.8203125 C85.8359375,23.1875068 85.3997439,24.2226527 84.5273438,24.9257812 C83.6549436,25.6289098 82.4114664,25.9869791 80.796875,26 L75.2695312,26 Z M78.1992188,19.8085938 L78.1992188,23.6464844 L80.7089844,23.6464844 C81.399092,23.6464844 81.9378236,23.482098 82.3251953,23.1533203 C82.712567,22.8245426 82.90625,22.3704456 82.90625,21.7910156 C82.90625,20.4889258 82.2324286,19.8281251 80.8847656,19.8085938 L78.1992188,19.8085938 Z M78.1992188,17.7382812 L80.3671875,17.7382812 C81.8450595,17.7122395 82.5839844,17.1230526 82.5839844,15.9707031 C82.5839844,15.3261687 82.3968118,14.8623061 82.0224609,14.5791016 C81.6481101,14.295897 81.0572957,14.1542969 80.25,14.1542969 L78.1992188,14.1542969 L78.1992188,17.7382812 Z M93.296875,20.7949219 L90.9628906,20.7949219 L90.9628906,26 L88.0332031,26 L88.0332031,11.78125 L93.3164062,11.78125 C94.9961021,11.78125 96.2916621,12.1555952 97.203125,12.9042969 C98.1145879,13.6529985 98.5703125,14.7109307 98.5703125,16.078125 C98.5703125,17.0481819 98.3603537,17.8570931 97.9404297,18.5048828 C97.5205057,19.1526725 96.8841188,19.6686179 96.03125,20.0527344 L99.1074219,25.8632812 L99.1074219,26 L95.9628906,26 L93.296875,20.7949219 Z M90.9628906,18.421875 L93.3261719,18.421875 C94.0618526,18.421875 94.6315084,18.2347024 95.0351562,17.8603516 C95.4388041,17.4860007 95.640625,16.9700554 95.640625,16.3125 C95.640625,15.6419237 95.4501972,15.1145853 95.0693359,14.7304688 C94.6884747,14.3463522 94.1041706,14.1542969 93.3164062,14.1542969 L90.9628906,14.1542969 L90.9628906,18.421875 Z M112.476562,19.2128906 C112.476562,20.6126372 112.229169,21.8398385 111.734375,22.8945312 C111.239581,23.949224 110.53158,24.763018 109.610352,25.3359375 C108.689123,25.908857 107.632818,26.1953125 106.441406,26.1953125 C105.263015,26.1953125 104.211593,25.9121122 103.287109,25.3457031 C102.362626,24.779294 101.646487,23.9703829 101.138672,22.9189453 C100.630857,21.8675078 100.373698,20.65821 100.367188,19.2910156 L100.367188,18.5878906 C100.367188,17.188144 100.619464,15.95606 101.124023,14.8916016 C101.628583,13.8271431 102.341467,13.010094 103.262695,12.4404297 C104.183924,11.8707654 105.236973,11.5859375 106.421875,11.5859375 C107.606777,11.5859375 108.659826,11.8707654 109.581055,12.4404297 C110.502283,13.010094 111.215167,13.8271431 111.719727,14.8916016 C112.224286,15.95606 112.476562,17.1848889 112.476562,18.578125 L112.476562,19.2128906 Z M109.507812,18.5683594 C109.507812,17.0774665 109.240888,15.9446653 108.707031,15.1699219 C108.173174,14.3951784 107.411463,14.0078125 106.421875,14.0078125 C105.438797,14.0078125 104.680341,14.3902957 104.146484,15.1552734 C103.612628,15.9202512 103.342448,17.0416593 103.335938,18.5195312 L103.335938,19.2128906 C103.335938,20.6647208 103.602862,21.7910116 104.136719,22.5917969 C104.670576,23.3925821 105.438797,23.7929688 106.441406,23.7929688 C107.424484,23.7929688 108.179685,23.4072304 108.707031,22.6357422 C109.234378,21.864254 109.501302,20.7395907 109.507812,19.2617188 L109.507812,18.5683594 Z M119.058594,20.296875 L117.535156,21.9375 L117.535156,26 L114.605469,26 L114.605469,11.78125 L117.535156,11.78125 L117.535156,18.2265625 L118.824219,16.4589844 L122.447266,11.78125 L126.050781,11.78125 L121.001953,18.0996094 L126.197266,26 L122.710938,26 L119.058594,20.296875 Z M135.855469,19.8378906 L130.230469,19.8378906 L130.230469,23.6464844 L136.832031,23.6464844 L136.832031,26 L127.300781,26 L127.300781,11.78125 L136.8125,11.78125 L136.8125,14.1542969 L130.230469,14.1542969 L130.230469,17.5429688 L135.855469,17.5429688 L135.855469,19.8378906 Z M143.814453,20.7949219 L141.480469,20.7949219 L141.480469,26 L138.550781,26 L138.550781,11.78125 L143.833984,11.78125 C145.51368,11.78125 146.80924,12.1555952 147.720703,12.9042969 C148.632166,13.6529985 149.087891,14.7109307 149.087891,16.078125 C149.087891,17.0481819 148.877932,17.8570931 148.458008,18.5048828 C148.038084,19.1526725 147.401697,19.6686179 146.548828,20.0527344 L149.625,25.8632812 L149.625,26 L146.480469,26 L143.814453,20.7949219 Z M141.480469,18.421875 L143.84375,18.421875 C144.579431,18.421875 145.149087,18.2347024 145.552734,17.8603516 C145.956382,17.4860007 146.158203,16.9700554 146.158203,16.3125 C146.158203,15.6419237 145.967775,15.1145853 145.586914,14.7304688 C145.206053,14.3463522 144.621749,14.1542969 143.833984,14.1542969 L141.480469,14.1542969 L141.480469,18.421875 Z M75.8164062,50 L75.8164062,35.78125 L79.9667969,35.78125 C81.4446688,35.78125 82.5970011,36.0921193 83.4238281,36.7138672 C84.2506552,37.3356151 84.6640625,38.2714781 84.6640625,39.5214844 C84.6640625,40.2311233 84.4638692,40.8528619 84.0634766,41.3867188 C83.6630839,41.9205756 83.1243523,42.298176 82.4472656,42.5195312 C83.3457076,42.6302089 84.0797498,43.02083 84.6494141,43.6914062 C85.2190784,44.3619825 85.5039062,45.1464799 85.5039062,46.0449219 C85.5039062,47.3144595 85.0921265,48.2910122 84.2685547,48.9746094 C83.4449829,49.6582065 82.3431059,50 80.9628906,50 L75.8164062,50 Z M76.9882812,43.1445312 L76.9882812,49.0136719 L80.9628906,49.0136719 C82.0110729,49.0136719 82.8346324,48.7548854 83.4335938,48.2373047 C84.0325551,47.719724 84.3320312,46.9954474 84.3320312,46.0644531 C84.3320312,45.2115843 84.0374378,44.5198594 83.4482422,43.9892578 C82.8590465,43.4586562 82.0696664,43.1770835 81.0800781,43.1445312 L76.9882812,43.1445312 Z M76.9882812,42.1582031 L80.40625,42.1582031 C81.3893278,42.1386718 82.1494114,41.9026715 82.6865234,41.4501953 C83.2236355,40.9977191 83.4921875,40.3418012 83.4921875,39.4824219 C83.4921875,38.5839799 83.1927113,37.9085309 82.59375,37.4560547 C81.9947887,37.0035785 81.1191464,36.7773438 79.9667969,36.7773438 L76.9882812,36.7773438 L76.9882812,42.1582031 Z M95.6992188,43.1152344 L89.3222656,43.1152344 L89.3222656,49.0136719 L96.6953125,49.0136719 L96.6953125,50 L88.1503906,50 L88.1503906,35.78125 L96.6464844,35.78125 L96.6464844,36.7773438 L89.3222656,36.7773438 L89.3222656,42.1191406 L95.6992188,42.1191406 L95.6992188,43.1152344 Z M109.654297,50 L108.482422,50 L100.40625,37.8320312 L100.347656,37.8417969 L100.347656,50 L99.1757812,50 L99.1757812,35.78125 L100.347656,35.78125 L108.423828,47.9199219 L108.482422,47.9101562 L108.482422,35.78125 L109.654297,35.78125 L109.654297,50 Z M123.082031,45.5566406 L123.101562,45.6152344 C123.127604,47.0084705 122.67188,48.1217406 121.734375,48.9550781 C120.79687,49.7884156 119.566414,50.2050781 118.042969,50.2050781 C116.46093,50.2050781 115.184901,49.6337948 114.214844,48.4912109 C113.244787,47.3486271 112.759766,45.8691497 112.759766,44.0527344 L112.759766,41.7382812 C112.759766,39.9283764 113.244787,38.448899 114.214844,37.2998047 C115.184901,36.1507104 116.46093,35.5761719 118.042969,35.5761719 C119.585945,35.5761719 120.821284,35.9830688 121.749023,36.796875 C122.676762,37.6106812 123.127604,38.7304616 123.101562,40.15625 L123.082031,40.2148438 L121.988281,40.2148438 C121.988281,39.0690047 121.63835,38.1754589 120.938477,37.5341797 C120.238603,36.8929004 119.273444,36.5722656 118.042969,36.5722656 C116.799473,36.5722656 115.801762,37.0540316 115.049805,38.0175781 C114.297848,38.9811246 113.921875,40.2148362 113.921875,41.71875 L113.921875,44.0527344 C113.921875,45.5761795 114.297848,46.8180291 115.049805,47.7783203 C115.801762,48.7386116 116.799473,49.21875 118.042969,49.21875 C119.273444,49.21875 120.238603,48.9062531 120.938477,48.28125 C121.63835,47.6562469 121.988281,46.7480528 121.988281,45.5566406 L123.082031,45.5566406 Z M136.529297,50 L135.357422,50 L135.357422,43.4570312 L127.28125,43.4570312 L127.28125,50 L126.109375,50 L126.109375,35.78125 L127.28125,35.78125 L127.28125,42.4609375 L135.357422,42.4609375 L135.357422,35.78125 L136.529297,35.78125 L136.529297,50 Z M146.998047,48.3007812 L147.056641,48.3007812 L152.349609,35.78125 L153.775391,35.78125 L153.775391,50 L152.603516,50 L152.603516,38.0566406 L152.544922,38.046875 L147.447266,50 L146.607422,50 L141.392578,37.7539062 L141.333984,37.7636719 L141.333984,50 L140.162109,50 L140.162109,35.78125 L141.724609,35.78125 L146.998047,48.3007812 Z M165.025391,46.0351562 L158.785156,46.0351562 L157.349609,50 L156.138672,50 L161.363281,35.78125 L162.466797,35.78125 L167.652344,50 L166.441406,50 L165.025391,46.0351562 Z M159.15625,44.9902344 L164.644531,44.9902344 L161.949219,37.4511719 L161.890625,37.4511719 L159.15625,44.9902344 Z M170.992188,43.5742188 L170.992188,50 L169.820312,50 L169.820312,35.7910156 L174.556641,35.7910156 C176.080086,35.7910156 177.248694,36.1246711 178.0625,36.7919922 C178.876306,37.4593132 179.283203,38.4342384 179.283203,39.7167969 C179.283203,40.472009 179.066734,41.147458 178.633789,41.7431641 C178.200844,42.3388702 177.587244,42.7734361 176.792969,43.046875 C177.671879,43.2682303 178.305011,43.6637341 178.692383,44.2333984 C179.079755,44.8030627 179.273438,45.5175738 179.273438,46.3769531 L179.273438,47.7148438 C179.273438,48.1575543 179.32552,48.5546857 179.429688,48.90625 C179.533855,49.2578143 179.706379,49.5442697 179.947266,49.765625 L179.947266,50 L178.755859,50 C178.514973,49.7656238 178.345704,49.4368511 178.248047,49.0136719 C178.15039,48.5904927 178.101562,48.1510439 178.101562,47.6953125 L178.101562,46.3964844 C178.101562,45.5240842 177.81999,44.8356145 177.256836,44.3310547 C176.693682,43.8264949 175.907557,43.5742188 174.898438,43.5742188 L170.992188,43.5742188 Z M170.992188,42.578125 L174.419922,42.578125 C175.70248,42.578125 176.639971,42.3193385 177.232422,41.8017578 C177.824873,41.2841771 178.121094,40.5859419 178.121094,39.7070312 C178.121094,38.7695266 177.8265,38.0485051 177.237305,37.5439453 C176.648109,37.0393855 175.754563,36.7871094 174.556641,36.7871094 L170.992188,36.7871094 L170.992188,42.578125 Z M185.601562,43.2519531 L184.068359,43.2519531 L184.068359,50 L182.896484,50 L182.896484,35.78125 L184.068359,35.78125 L184.068359,42.265625 L185.591797,42.265625 L191.177734,35.78125 L192.505859,35.78125 L192.525391,35.8300781 L186.626953,42.6660156 L193.111328,49.9511719 L193.091797,50 L191.685547,50 L185.601562,43.2519531 Z M196.685547,50 L195.513672,50 L195.513672,35.78125 L196.685547,35.78125 L196.685547,50 Z M211.099609,50 L209.927734,50 L201.851562,37.8320312 L201.792969,37.8417969 L201.792969,50 L200.621094,50 L200.621094,35.78125 L201.792969,35.78125 L209.869141,47.9199219 L209.927734,47.9101562 L209.927734,35.78125 L211.099609,35.78125 L211.099609,50 Z M224.839844,48.0859375 C224.527342,48.600263 223.949548,49.082029 223.106445,49.53125 C222.263342,49.980471 221.200527,50.2050781 219.917969,50.2050781 C218.283846,50.2050781 216.945969,49.6419327 215.904297,48.515625 C214.862625,47.3893173 214.341797,45.9309985 214.341797,44.140625 L214.341797,41.5332031 C214.341797,39.7753818 214.846349,38.3431045 215.855469,37.2363281 C216.864588,36.1295518 218.169914,35.5761719 219.771484,35.5761719 C221.314461,35.5761719 222.540035,35.9830688 223.448242,36.796875 C224.35645,37.6106812 224.797526,38.6458271 224.771484,39.9023438 L224.742188,39.9609375 L223.667969,39.9609375 C223.667969,38.9778597 223.32943,38.1673209 222.652344,37.5292969 C221.975257,36.8912729 221.01498,36.5722656 219.771484,36.5722656 C218.495436,36.5722656 217.466801,37.0345006 216.685547,37.9589844 C215.904293,38.8834682 215.513672,40.0683521 215.513672,41.5136719 L215.513672,44.140625 C215.513672,45.6250074 215.920569,46.8424432 216.734375,47.7929688 C217.548181,48.7434943 218.609368,49.21875 219.917969,49.21875 C220.914067,49.21875 221.727861,49.0690119 222.359375,48.7695312 C222.990889,48.4700506 223.430337,48.1217468 223.677734,47.7246094 L223.677734,44.0820312 L219.849609,44.0820312 L219.849609,43.0859375 L224.839844,43.0859375 L224.839844,48.0859375 Z" id="Broker-Benchmarking" fill="#5FAFAF"></path>
                <g id="portfolio-benchmarking">
                    <mask id="mask-2" fill="white">
                        <use xlink:href="#path-1"></use>
                    </mask>
                    <circle stroke="#5FAFAF" stroke-width="2" cx="30" cy="30" r="31"></circle>
                    <g id="Group-2" mask="url(#mask-2)" fill-opacity="0.6" fill="#5FAFAF">
                        <g transform="translate(16.000000, 16.000000)">
                            <rect id="Rectangle" x="0" y="0" width="29" height="8" rx="4"></rect>
                            <circle id="Oval-11" cx="4" cy="4" r="4"></circle>
                            <rect id="Rectangle" opacity="0.4" x="0" y="11" width="20.7142857" height="8" rx="4"></rect>
                            <circle id="Oval-11" opacity="0.8" cx="4" cy="15" r="4"></circle>
                            <rect id="Rectangle" opacity="0.3" x="0" y="22" width="15.7428571" height="8" rx="4"></rect>
                            <circle id="Oval-11" opacity="0.6" cx="4" cy="26" r="4"></circle>
                        </g>
                    </g>
                </g>
            </g>
        </g>
    </g>
</svg>