<?xml version="1.0" encoding="UTF-8"?>
<svg width="203px" height="64px" viewBox="0 0 203 64" version="1.1" xmlns="http://www.w3.org/2000/svg" xmlns:xlink="http://www.w3.org/1999/xlink">
    <!-- Generator: Sketch 47 (45396) - http://www.bohemiancoding.com/sketch -->
    <title>icons/submission-verification</title>
    <desc>Created with Sketch.</desc>
    <defs>
        <path d="M11,22.8993973 C11.080933,22.9194056 11.1772828,22.888973 11.2890495,22.8080997 C13.0374744,21.5382377 14.9302993,20.2576006 16.4140492,18.8104845 C17.8978241,17.3633684 19,15.7080514 19,13.7117588 L19,3.49832609 C18.999975,3.23094601 18.7618,2.98767985 18.5,2.98765432 L11,2.98765432 L11,22.8993973 Z" id="path-1"></path>
        <filter x="-87.5%" y="-25.1%" width="275.0%" height="170.3%" filterUnits="objectBoundingBox" id="filter-2">
            <feOffset dx="0" dy="2" in="SourceAlpha" result="shadowOffsetOuter1"></feOffset>
            <feGaussianBlur stdDeviation="2" in="shadowOffsetOuter1" result="shadowBlurOuter1"></feGaussianBlur>
            <feColorMatrix values="0 0 0 0 0   0 0 0 0 0   0 0 0 0 0  0 0 0 0.05 0" type="matrix" in="shadowBlurOuter1"></feColorMatrix>
        </filter>
    </defs>
    <g id="Icons" stroke="none" stroke-width="1" fill="none" fill-rule="evenodd">
        <g id="Artboard" transform="translate(-749.000000, -664.000000)">
            <g id="icons/submission-verification" transform="translate(751.000000, 666.000000)">
                <path d="M83.6425781,21.2695312 C83.6425781,20.7161431 83.4472676,20.2913426 83.0566406,19.9951172 C82.6660137,19.6988917 81.9628957,19.3863949 80.9472656,19.0576172 C79.9316355,18.7288395 79.1276071,18.4049495 78.5351562,18.0859375 C76.9205648,17.2135373 76.1132812,16.0384188 76.1132812,14.5605469 C76.1132812,13.7923139 76.3297504,13.1070994 76.7626953,12.5048828 C77.1956402,11.9026663 77.8173788,11.4322934 78.6279297,11.09375 C79.4384806,10.7552066 80.3483022,10.5859375 81.3574219,10.5859375 C82.373052,10.5859375 83.2779908,10.7698549 84.0722656,11.1376953 C84.8665404,11.5055357 85.4833962,12.0247362 85.9228516,12.6953125 C86.3623069,13.3658888 86.5820312,14.1275999 86.5820312,14.9804688 L83.6523438,14.9804688 C83.6523438,14.3294238 83.4472677,13.823244 83.0371094,13.4619141 C82.6269511,13.1005841 82.050785,12.9199219 81.3085938,12.9199219 C80.5924443,12.9199219 80.0358093,13.0712875 79.6386719,13.3740234 C79.2415345,13.6767593 79.0429688,14.0755184 79.0429688,14.5703125 C79.0429688,15.0325544 79.2757138,15.4199203 79.7412109,15.7324219 C80.2067081,16.0449234 80.8919226,16.3378893 81.796875,16.6113281 C83.46355,17.1126327 84.6777306,17.7343713 85.4394531,18.4765625 C86.2011757,19.2187537 86.5820312,20.1432236 86.5820312,21.25 C86.5820312,22.4804749 86.1165411,23.4456345 85.1855469,24.1455078 C84.2545526,24.8453811 83.00131,25.1953125 81.4257812,25.1953125 C80.3320258,25.1953125 79.335942,24.9951192 78.4375,24.5947266 C77.539058,24.1943339 76.8538435,23.6458368 76.3818359,22.9492188 C75.9098284,22.2526007 75.6738281,21.4453171 75.6738281,20.5273438 L78.6132812,20.5273438 C78.6132812,22.096362 79.5507719,22.8808594 81.4257812,22.8808594 C82.1223993,22.8808594 82.6660137,22.7392592 83.0566406,22.4560547 C83.4472676,22.1728501 83.6425781,21.7773463 83.6425781,21.2695312 Z M99.3261719,10.78125 L99.3261719,20.1464844 C99.3261719,21.7024817 98.8395231,22.9329382 97.8662109,23.8378906 C96.8928988,24.7428431 95.5631595,25.1953125 93.8769531,25.1953125 C92.2167886,25.1953125 90.8984424,24.7558638 89.921875,23.8769531 C88.9453076,22.9980425 88.4472657,21.7903723 88.4277344,20.2539062 L88.4277344,10.78125 L91.3574219,10.78125 L91.3574219,20.1660156 C91.3574219,21.0970099 91.5804014,21.775714 92.0263672,22.2021484 C92.472333,22.6285829 93.0891888,22.8417969 93.8769531,22.8417969 C95.5240968,22.8417969 96.360677,21.9759201 96.3867188,20.2441406 L96.3867188,10.78125 L99.3261719,10.78125 Z M101.728516,25 L101.728516,10.78125 L106.708984,10.78125 C108.434253,10.78125 109.742834,11.1116503 110.634766,11.7724609 C111.526697,12.4332715 111.972656,13.4016863 111.972656,14.6777344 C111.972656,15.3743524 111.793622,15.9879531 111.435547,16.5185547 C111.077472,17.0491563 110.57943,17.4381498 109.941406,17.6855469 C110.670577,17.8678395 111.245115,18.2356743 111.665039,18.7890625 C112.084963,19.3424507 112.294922,20.0195272 112.294922,20.8203125 C112.294922,22.1875068 111.858728,23.2226527 110.986328,23.9257812 C110.113928,24.6289098 108.870451,24.9869791 107.255859,25 L101.728516,25 Z M104.658203,18.8085938 L104.658203,22.6464844 L107.167969,22.6464844 C107.858076,22.6464844 108.396808,22.482098 108.78418,22.1533203 C109.171551,21.8245426 109.365234,21.3704456 109.365234,20.7910156 C109.365234,19.4889258 108.691413,18.8281251 107.34375,18.8085938 L104.658203,18.8085938 Z M104.658203,16.7382812 L106.826172,16.7382812 C108.304044,16.7122395 109.042969,16.1230526 109.042969,14.9707031 C109.042969,14.3261687 108.855796,13.8623061 108.481445,13.5791016 C108.107094,13.295897 107.51628,13.1542969 106.708984,13.1542969 L104.658203,13.1542969 L104.658203,16.7382812 Z M118.320312,10.78125 L121.972656,21.09375 L125.605469,10.78125 L129.453125,10.78125 L129.453125,25 L126.513672,25 L126.513672,21.1132812 L126.806641,14.4042969 L122.96875,25 L120.957031,25 L117.128906,14.4140625 L117.421875,21.1132812 L117.421875,25 L114.492188,25 L114.492188,10.78125 L118.320312,10.78125 Z M135.126953,25 L132.197266,25 L132.197266,10.78125 L135.126953,10.78125 L135.126953,25 Z M145.214844,21.2695312 C145.214844,20.7161431 145.019533,20.2913426 144.628906,19.9951172 C144.238279,19.6988917 143.535161,19.3863949 142.519531,19.0576172 C141.503901,18.7288395 140.699873,18.4049495 140.107422,18.0859375 C138.49283,17.2135373 137.685547,16.0384188 137.685547,14.5605469 C137.685547,13.7923139 137.902016,13.1070994 138.334961,12.5048828 C138.767906,11.9026663 139.389644,11.4322934 140.200195,11.09375 C141.010746,10.7552066 141.920568,10.5859375 142.929688,10.5859375 C143.945318,10.5859375 144.850256,10.7698549 145.644531,11.1376953 C146.438806,11.5055357 147.055662,12.0247362 147.495117,12.6953125 C147.934573,13.3658888 148.154297,14.1275999 148.154297,14.9804688 L145.224609,14.9804688 C145.224609,14.3294238 145.019533,13.823244 144.609375,13.4619141 C144.199217,13.1005841 143.623051,12.9199219 142.880859,12.9199219 C142.16471,12.9199219 141.608075,13.0712875 141.210938,13.3740234 C140.8138,13.6767593 140.615234,14.0755184 140.615234,14.5703125 C140.615234,15.0325544 140.847979,15.4199203 141.313477,15.7324219 C141.778974,16.0449234 142.464188,16.3378893 143.369141,16.6113281 C145.035816,17.1126327 146.249996,17.7343713 147.011719,18.4765625 C147.773441,19.2187537 148.154297,20.1432236 148.154297,21.25 C148.154297,22.4804749 147.688807,23.4456345 146.757812,24.1455078 C145.826818,24.8453811 144.573576,25.1953125 142.998047,25.1953125 C141.904291,25.1953125 140.908208,24.9951192 140.009766,24.5947266 C139.111324,24.1943339 138.426109,23.6458368 137.954102,22.9492188 C137.482094,22.2526007 137.246094,21.4453171 137.246094,20.5273438 L140.185547,20.5273438 C140.185547,22.096362 141.123038,22.8808594 142.998047,22.8808594 C143.694665,22.8808594 144.238279,22.7392592 144.628906,22.4560547 C145.019533,22.1728501 145.214844,21.7773463 145.214844,21.2695312 Z M157.509766,21.2695312 C157.509766,20.7161431 157.314455,20.2913426 156.923828,19.9951172 C156.533201,19.6988917 155.830083,19.3863949 154.814453,19.0576172 C153.798823,18.7288395 152.994795,18.4049495 152.402344,18.0859375 C150.787752,17.2135373 149.980469,16.0384188 149.980469,14.5605469 C149.980469,13.7923139 150.196938,13.1070994 150.629883,12.5048828 C151.062828,11.9026663 151.684566,11.4322934 152.495117,11.09375 C153.305668,10.7552066 154.21549,10.5859375 155.224609,10.5859375 C156.240239,10.5859375 157.145178,10.7698549 157.939453,11.1376953 C158.733728,11.5055357 159.350584,12.0247362 159.790039,12.6953125 C160.229494,13.3658888 160.449219,14.1275999 160.449219,14.9804688 L157.519531,14.9804688 C157.519531,14.3294238 157.314455,13.823244 156.904297,13.4619141 C156.494139,13.1005841 155.917972,12.9199219 155.175781,12.9199219 C154.459632,12.9199219 153.902997,13.0712875 153.505859,13.3740234 C153.108722,13.6767593 152.910156,14.0755184 152.910156,14.5703125 C152.910156,15.0325544 153.142901,15.4199203 153.608398,15.7324219 C154.073896,16.0449234 154.75911,16.3378893 155.664062,16.6113281 C157.330737,17.1126327 158.544918,17.7343713 159.306641,18.4765625 C160.068363,19.2187537 160.449219,20.1432236 160.449219,21.25 C160.449219,22.4804749 159.983729,23.4456345 159.052734,24.1455078 C158.12174,24.8453811 156.868497,25.1953125 155.292969,25.1953125 C154.199213,25.1953125 153.203129,24.9951192 152.304688,24.5947266 C151.406246,24.1943339 150.721031,23.6458368 150.249023,22.9492188 C149.777016,22.2526007 149.541016,21.4453171 149.541016,20.5273438 L152.480469,20.5273438 C152.480469,22.096362 153.417959,22.8808594 155.292969,22.8808594 C155.989587,22.8808594 156.533201,22.7392592 156.923828,22.4560547 C157.314455,22.1728501 157.509766,21.7773463 157.509766,21.2695312 Z M165.546875,25 L162.617188,25 L162.617188,10.78125 L165.546875,10.78125 L165.546875,25 Z M179.941406,18.2128906 C179.941406,19.6126372 179.694013,20.8398385 179.199219,21.8945312 C178.704425,22.949224 177.996424,23.763018 177.075195,24.3359375 C176.153967,24.908857 175.097662,25.1953125 173.90625,25.1953125 C172.727859,25.1953125 171.676437,24.9121122 170.751953,24.3457031 C169.827469,23.779294 169.111331,22.9703829 168.603516,21.9189453 C168.095701,20.8675078 167.838542,19.65821 167.832031,18.2910156 L167.832031,17.5878906 C167.832031,16.188144 168.084307,14.95606 168.588867,13.8916016 C169.093427,12.8271431 169.80631,12.010094 170.727539,11.4404297 C171.648768,10.8707654 172.701817,10.5859375 173.886719,10.5859375 C175.071621,10.5859375 176.12467,10.8707654 177.045898,11.4404297 C177.967127,12.010094 178.68001,12.8271431 179.18457,13.8916016 C179.68913,14.95606 179.941406,16.1848889 179.941406,17.578125 L179.941406,18.2128906 Z M176.972656,17.5683594 C176.972656,16.0774665 176.705732,14.9446653 176.171875,14.1699219 C175.638018,13.3951784 174.876307,13.0078125 173.886719,13.0078125 C172.903641,13.0078125 172.145185,13.3902957 171.611328,14.1552734 C171.077471,14.9202512 170.807292,16.0416593 170.800781,17.5195312 L170.800781,18.2128906 C170.800781,19.6647208 171.067706,20.7910116 171.601562,21.5917969 C172.135419,22.3925821 172.903641,22.7929688 173.90625,22.7929688 C174.889328,22.7929688 175.644529,22.4072304 176.171875,21.6357422 C176.699221,20.864254 176.966146,19.7395907 176.972656,18.2617188 L176.972656,17.5683594 Z M193.632812,25 L190.703125,25 L185,15.6445312 L185,25 L182.070312,25 L182.070312,10.78125 L185,10.78125 L190.712891,20.15625 L190.712891,10.78125 L193.632812,10.78125 L193.632812,25 Z M80.8203125,46.5097656 L81.1035156,47.5058594 L81.1621094,47.5058594 L81.4453125,46.5097656 L85.7226562,34.78125 L86.9824219,34.78125 L81.6894531,49 L80.5761719,49 L75.2832031,34.78125 L76.5527344,34.78125 L80.8203125,46.5097656 Z M96.6308594,42.1152344 L90.2539062,42.1152344 L90.2539062,48.0136719 L97.6269531,48.0136719 L97.6269531,49 L89.0820312,49 L89.0820312,34.78125 L97.578125,34.78125 L97.578125,35.7773438 L90.2539062,35.7773438 L90.2539062,41.1191406 L96.6308594,41.1191406 L96.6308594,42.1152344 Z M101.25,42.5742188 L101.25,49 L100.078125,49 L100.078125,34.7910156 L104.814453,34.7910156 C106.337898,34.7910156 107.506506,35.1246711 108.320312,35.7919922 C109.134119,36.4593132 109.541016,37.4342384 109.541016,38.7167969 C109.541016,39.472009 109.324546,40.147458 108.891602,40.7431641 C108.458657,41.3388702 107.845056,41.7734361 107.050781,42.046875 C107.929692,42.2682303 108.562824,42.6637341 108.950195,43.2333984 C109.337567,43.8030627 109.53125,44.5175738 109.53125,45.3769531 L109.53125,46.7148438 C109.53125,47.1575543 109.583333,47.5546857 109.6875,47.90625 C109.791667,48.2578143 109.964192,48.5442697 110.205078,48.765625 L110.205078,49 L109.013672,49 C108.772785,48.7656238 108.603516,48.4368511 108.505859,48.0136719 C108.408203,47.5904927 108.359375,47.1510439 108.359375,46.6953125 L108.359375,45.3964844 C108.359375,44.5240842 108.077802,43.8356145 107.514648,43.3310547 C106.951495,42.8264949 106.16537,42.5742188 105.15625,42.5742188 L101.25,42.5742188 Z M101.25,41.578125 L104.677734,41.578125 C105.960293,41.578125 106.897783,41.3193385 107.490234,40.8017578 C108.082685,40.2841771 108.378906,39.5859419 108.378906,38.7070312 C108.378906,37.7695266 108.084313,37.0485051 107.495117,36.5439453 C106.905922,36.0393855 106.012376,35.7871094 104.814453,35.7871094 L101.25,35.7871094 L101.25,41.578125 Z M114.628906,49 L113.457031,49 L113.457031,34.78125 L114.628906,34.78125 L114.628906,49 Z M126.269531,42.3398438 L119.736328,42.3398438 L119.736328,49 L118.564453,49 L118.564453,34.78125 L127.265625,34.78125 L127.265625,35.7773438 L119.736328,35.7773438 L119.736328,41.3339844 L126.269531,41.3339844 L126.269531,42.3398438 Z M131.054688,49 L129.882812,49 L129.882812,34.78125 L131.054688,34.78125 L131.054688,49 Z M144.785156,44.5566406 L144.804688,44.6152344 C144.830729,46.0084705 144.375005,47.1217406 143.4375,47.9550781 C142.499995,48.7884156 141.269539,49.2050781 139.746094,49.2050781 C138.164055,49.2050781 136.888026,48.6337948 135.917969,47.4912109 C134.947912,46.3486271 134.462891,44.8691497 134.462891,43.0527344 L134.462891,40.7382812 C134.462891,38.9283764 134.947912,37.448899 135.917969,36.2998047 C136.888026,35.1507104 138.164055,34.5761719 139.746094,34.5761719 C141.28907,34.5761719 142.524409,34.9830688 143.452148,35.796875 C144.379887,36.6106812 144.830729,37.7304616 144.804688,39.15625 L144.785156,39.2148438 L143.691406,39.2148438 C143.691406,38.0690047 143.341475,37.1754589 142.641602,36.5341797 C141.941728,35.8929004 140.976569,35.5722656 139.746094,35.5722656 C138.502598,35.5722656 137.504887,36.0540316 136.75293,37.0175781 C136.000973,37.9811246 135.625,39.2148362 135.625,40.71875 L135.625,43.0527344 C135.625,44.5761795 136.000973,45.8180291 136.75293,46.7783203 C137.504887,47.7386116 138.502598,48.21875 139.746094,48.21875 C140.976569,48.21875 141.941728,47.9062531 142.641602,47.28125 C143.341475,46.6562469 143.691406,45.7480528 143.691406,44.5566406 L144.785156,44.5566406 Z M155.253906,45.0351562 L149.013672,45.0351562 L147.578125,49 L146.367188,49 L151.591797,34.78125 L152.695312,34.78125 L157.880859,49 L156.669922,49 L155.253906,45.0351562 Z M149.384766,43.9902344 L154.873047,43.9902344 L152.177734,36.4511719 L152.119141,36.4511719 L149.384766,43.9902344 Z M168.486328,35.7773438 L163.642578,35.7773438 L163.642578,49 L162.480469,49 L162.480469,35.7773438 L157.470703,35.7773438 L157.470703,34.78125 L168.486328,34.78125 L168.486328,35.7773438 Z M172.246094,49 L171.074219,49 L171.074219,34.78125 L172.246094,34.78125 L172.246094,49 Z M186.611328,43.0527344 C186.611328,44.8886811 186.108403,46.3730412 185.102539,47.5058594 C184.096675,48.6386775 182.747404,49.2050781 181.054688,49.2050781 C179.388013,49.2050781 178.058273,48.6386775 177.06543,47.5058594 C176.072586,46.3730412 175.576172,44.8886811 175.576172,43.0527344 L175.576172,40.7382812 C175.576172,38.908845 176.070959,37.4244849 177.060547,36.2851562 C178.050135,35.1458276 179.378247,34.5761719 181.044922,34.5761719 C182.737639,34.5761719 184.088537,35.1458276 185.097656,36.2851562 C186.106776,37.4244849 186.611328,38.908845 186.611328,40.7382812 L186.611328,43.0527344 Z M185.449219,40.71875 C185.449219,39.182284 185.060225,37.9453172 184.282227,37.0078125 C183.504228,36.0703078 182.425137,35.6015625 181.044922,35.6015625 C179.690748,35.6015625 178.636071,36.0703078 177.880859,37.0078125 C177.125647,37.9453172 176.748047,39.182284 176.748047,40.71875 L176.748047,43.0527344 C176.748047,44.6022213 177.127275,45.8456984 177.885742,46.7832031 C178.64421,47.7207078 179.700514,48.1894531 181.054688,48.1894531 C182.441413,48.1894531 183.520504,47.7223354 184.291992,46.7880859 C185.06348,45.8538365 185.449219,44.6087317 185.449219,43.0527344 L185.449219,40.71875 Z M200.117188,49 L198.945312,49 L190.869141,36.8320312 L190.810547,36.8417969 L190.810547,49 L189.638672,49 L189.638672,34.78125 L190.810547,34.78125 L198.886719,46.9199219 L198.945312,46.9101562 L198.945312,34.78125 L200.117188,34.78125 L200.117188,49 Z" id="Submission-Verificat" fill="#FFFFFF"></path>
                <g id="submission-verification">
                    <circle id="Oval" stroke="#FFFFFF" stroke-width="2" cx="30" cy="30" r="31"></circle>
                    <g id="Group" transform="translate(19.000000, 19.000000)" fill-rule="nonzero">
                        <path d="M1.22124525e-15,0.68962389 L1.22124525e-15,14.4820982 C1.22124525e-15,17.1779415 1.51549053,19.4133228 3.55568103,21.3675445 C5.59583715,23.3217662 8.19847136,25.0511705 10.6025556,26.7660238 C10.8330743,26.9298439 11.1669243,26.9298439 11.397443,26.7660238 C13.8015273,25.0511705 16.4041615,23.3217662 18.4443176,21.3675445 C20.4845081,19.4133228 22,17.1779415 22,14.4820982 L22,0.68962389 C21.9999656,0.328547165 21.672475,3.44811945e-05 21.3125,0 L0.687499957,0 C0.293459357,0.00962025326 0.00271562483,0.361676697 0,0.68962389 L1.22124525e-15,0.68962389 Z" id="Shape" stroke="#FFFFFF" stroke-width="2"></path>
                        <g id="Shape">
                            <use fill="black" fill-opacity="1" filter="url(#filter-2)" xlink:href="#path-1"></use>
                            <use fill="#FFFFFF" fill-rule="evenodd" xlink:href="#path-1"></use>
                        </g>
                    </g>
                </g>
            </g>
        </g>
    </g>
</svg>