<?xml version="1.0" encoding="UTF-8"?>
<svg width="202px" height="64px" viewBox="0 0 202 64" version="1.1" xmlns="http://www.w3.org/2000/svg" xmlns:xlink="http://www.w3.org/1999/xlink">
    <!-- Generator: Sketch 47 (45396) - http://www.bohemiancoding.com/sketch -->
    <title>icons/submission-enrichment</title>
    <desc>Created with Sketch.</desc>
    <defs></defs>
    <g id="Icons" stroke="none" stroke-width="1" fill="none" fill-rule="evenodd">
        <g id="Artboard" transform="translate(-749.000000, -584.000000)">
            <g id="icons/submission-enrichment" transform="translate(751.000000, 586.000000)">
                <g id="icon">
                    <circle id="Oval" stroke="#FFFFFF" stroke-width="2" cx="30" cy="30" r="31"></circle>
                    <g id="Group-2" transform="translate(17.000000, 18.000000)">
                        <g id="Group-3" opacity="0.6" transform="translate(0.000000, 9.000000)">
                            <path d="M9,3 L25.2903226,3" id="Line-4" stroke="#FFFFFF" stroke-width="2" stroke-linecap="round"></path>
                            <rect id="Rectangle-16" fill="#FFFFFF" x="0" y="0" width="6" height="6" rx="1"></rect>
                        </g>
                        <g id="Group-3" opacity="0.399999976" transform="translate(0.000000, 18.000000)" stroke="#FFFFFF" stroke-width="2">
                            <path d="M9,3 L25.2903226,3" id="Line-4" stroke-linecap="round"></path>
                            <rect id="Rectangle-16" x="1" y="1" width="4" height="4" rx="1"></rect>
                        </g>
                        <path d="M9,3 L25.2903226,3" id="Line-4" stroke="#FFFFFF" stroke-width="2" stroke-linecap="round"></path>
                        <rect id="Rectangle-15" fill="#FFFFFF" x="0" y="0" width="6" height="6" rx="1"></rect>
                    </g>
                </g>
                <path d="M83.6425781,22.2695312 C83.6425781,21.7161431 83.4472676,21.2913426 83.0566406,20.9951172 C82.6660137,20.6988917 81.9628957,20.3863949 80.9472656,20.0576172 C79.9316355,19.7288395 79.1276071,19.4049495 78.5351562,19.0859375 C76.9205648,18.2135373 76.1132812,17.0384188 76.1132812,15.5605469 C76.1132812,14.7923139 76.3297504,14.1070994 76.7626953,13.5048828 C77.1956402,12.9026663 77.8173788,12.4322934 78.6279297,12.09375 C79.4384806,11.7552066 80.3483022,11.5859375 81.3574219,11.5859375 C82.373052,11.5859375 83.2779908,11.7698549 84.0722656,12.1376953 C84.8665404,12.5055357 85.4833962,13.0247362 85.9228516,13.6953125 C86.3623069,14.3658888 86.5820312,15.1275999 86.5820312,15.9804688 L83.6523438,15.9804688 C83.6523438,15.3294238 83.4472677,14.823244 83.0371094,14.4619141 C82.6269511,14.1005841 82.050785,13.9199219 81.3085938,13.9199219 C80.5924443,13.9199219 80.0358093,14.0712875 79.6386719,14.3740234 C79.2415345,14.6767593 79.0429688,15.0755184 79.0429688,15.5703125 C79.0429688,16.0325544 79.2757138,16.4199203 79.7412109,16.7324219 C80.2067081,17.0449234 80.8919226,17.3378893 81.796875,17.6113281 C83.46355,18.1126327 84.6777306,18.7343713 85.4394531,19.4765625 C86.2011757,20.2187537 86.5820312,21.1432236 86.5820312,22.25 C86.5820312,23.4804749 86.1165411,24.4456345 85.1855469,25.1455078 C84.2545526,25.8453811 83.00131,26.1953125 81.4257812,26.1953125 C80.3320258,26.1953125 79.335942,25.9951192 78.4375,25.5947266 C77.539058,25.1943339 76.8538435,24.6458368 76.3818359,23.9492188 C75.9098284,23.2526007 75.6738281,22.4453171 75.6738281,21.5273438 L78.6132812,21.5273438 C78.6132812,23.096362 79.5507719,23.8808594 81.4257812,23.8808594 C82.1223993,23.8808594 82.6660137,23.7392592 83.0566406,23.4560547 C83.4472676,23.1728501 83.6425781,22.7773463 83.6425781,22.2695312 Z M99.3261719,11.78125 L99.3261719,21.1464844 C99.3261719,22.7024817 98.8395231,23.9329382 97.8662109,24.8378906 C96.8928988,25.7428431 95.5631595,26.1953125 93.8769531,26.1953125 C92.2167886,26.1953125 90.8984424,25.7558638 89.921875,24.8769531 C88.9453076,23.9980425 88.4472657,22.7903723 88.4277344,21.2539062 L88.4277344,11.78125 L91.3574219,11.78125 L91.3574219,21.1660156 C91.3574219,22.0970099 91.5804014,22.775714 92.0263672,23.2021484 C92.472333,23.6285829 93.0891888,23.8417969 93.8769531,23.8417969 C95.5240968,23.8417969 96.360677,22.9759201 96.3867188,21.2441406 L96.3867188,11.78125 L99.3261719,11.78125 Z M101.728516,26 L101.728516,11.78125 L106.708984,11.78125 C108.434253,11.78125 109.742834,12.1116503 110.634766,12.7724609 C111.526697,13.4332715 111.972656,14.4016863 111.972656,15.6777344 C111.972656,16.3743524 111.793622,16.9879531 111.435547,17.5185547 C111.077472,18.0491563 110.57943,18.4381498 109.941406,18.6855469 C110.670577,18.8678395 111.245115,19.2356743 111.665039,19.7890625 C112.084963,20.3424507 112.294922,21.0195272 112.294922,21.8203125 C112.294922,23.1875068 111.858728,24.2226527 110.986328,24.9257812 C110.113928,25.6289098 108.870451,25.9869791 107.255859,26 L101.728516,26 Z M104.658203,19.8085938 L104.658203,23.6464844 L107.167969,23.6464844 C107.858076,23.6464844 108.396808,23.482098 108.78418,23.1533203 C109.171551,22.8245426 109.365234,22.3704456 109.365234,21.7910156 C109.365234,20.4889258 108.691413,19.8281251 107.34375,19.8085938 L104.658203,19.8085938 Z M104.658203,17.7382812 L106.826172,17.7382812 C108.304044,17.7122395 109.042969,17.1230526 109.042969,15.9707031 C109.042969,15.3261687 108.855796,14.8623061 108.481445,14.5791016 C108.107094,14.295897 107.51628,14.1542969 106.708984,14.1542969 L104.658203,14.1542969 L104.658203,17.7382812 Z M118.320312,11.78125 L121.972656,22.09375 L125.605469,11.78125 L129.453125,11.78125 L129.453125,26 L126.513672,26 L126.513672,22.1132812 L126.806641,15.4042969 L122.96875,26 L120.957031,26 L117.128906,15.4140625 L117.421875,22.1132812 L117.421875,26 L114.492188,26 L114.492188,11.78125 L118.320312,11.78125 Z M135.126953,26 L132.197266,26 L132.197266,11.78125 L135.126953,11.78125 L135.126953,26 Z M145.214844,22.2695312 C145.214844,21.7161431 145.019533,21.2913426 144.628906,20.9951172 C144.238279,20.6988917 143.535161,20.3863949 142.519531,20.0576172 C141.503901,19.7288395 140.699873,19.4049495 140.107422,19.0859375 C138.49283,18.2135373 137.685547,17.0384188 137.685547,15.5605469 C137.685547,14.7923139 137.902016,14.1070994 138.334961,13.5048828 C138.767906,12.9026663 139.389644,12.4322934 140.200195,12.09375 C141.010746,11.7552066 141.920568,11.5859375 142.929688,11.5859375 C143.945318,11.5859375 144.850256,11.7698549 145.644531,12.1376953 C146.438806,12.5055357 147.055662,13.0247362 147.495117,13.6953125 C147.934573,14.3658888 148.154297,15.1275999 148.154297,15.9804688 L145.224609,15.9804688 C145.224609,15.3294238 145.019533,14.823244 144.609375,14.4619141 C144.199217,14.1005841 143.623051,13.9199219 142.880859,13.9199219 C142.16471,13.9199219 141.608075,14.0712875 141.210938,14.3740234 C140.8138,14.6767593 140.615234,15.0755184 140.615234,15.5703125 C140.615234,16.0325544 140.847979,16.4199203 141.313477,16.7324219 C141.778974,17.0449234 142.464188,17.3378893 143.369141,17.6113281 C145.035816,18.1126327 146.249996,18.7343713 147.011719,19.4765625 C147.773441,20.2187537 148.154297,21.1432236 148.154297,22.25 C148.154297,23.4804749 147.688807,24.4456345 146.757812,25.1455078 C145.826818,25.8453811 144.573576,26.1953125 142.998047,26.1953125 C141.904291,26.1953125 140.908208,25.9951192 140.009766,25.5947266 C139.111324,25.1943339 138.426109,24.6458368 137.954102,23.9492188 C137.482094,23.2526007 137.246094,22.4453171 137.246094,21.5273438 L140.185547,21.5273438 C140.185547,23.096362 141.123038,23.8808594 142.998047,23.8808594 C143.694665,23.8808594 144.238279,23.7392592 144.628906,23.4560547 C145.019533,23.1728501 145.214844,22.7773463 145.214844,22.2695312 Z M157.509766,22.2695312 C157.509766,21.7161431 157.314455,21.2913426 156.923828,20.9951172 C156.533201,20.6988917 155.830083,20.3863949 154.814453,20.0576172 C153.798823,19.7288395 152.994795,19.4049495 152.402344,19.0859375 C150.787752,18.2135373 149.980469,17.0384188 149.980469,15.5605469 C149.980469,14.7923139 150.196938,14.1070994 150.629883,13.5048828 C151.062828,12.9026663 151.684566,12.4322934 152.495117,12.09375 C153.305668,11.7552066 154.21549,11.5859375 155.224609,11.5859375 C156.240239,11.5859375 157.145178,11.7698549 157.939453,12.1376953 C158.733728,12.5055357 159.350584,13.0247362 159.790039,13.6953125 C160.229494,14.3658888 160.449219,15.1275999 160.449219,15.9804688 L157.519531,15.9804688 C157.519531,15.3294238 157.314455,14.823244 156.904297,14.4619141 C156.494139,14.1005841 155.917972,13.9199219 155.175781,13.9199219 C154.459632,13.9199219 153.902997,14.0712875 153.505859,14.3740234 C153.108722,14.6767593 152.910156,15.0755184 152.910156,15.5703125 C152.910156,16.0325544 153.142901,16.4199203 153.608398,16.7324219 C154.073896,17.0449234 154.75911,17.3378893 155.664062,17.6113281 C157.330737,18.1126327 158.544918,18.7343713 159.306641,19.4765625 C160.068363,20.2187537 160.449219,21.1432236 160.449219,22.25 C160.449219,23.4804749 159.983729,24.4456345 159.052734,25.1455078 C158.12174,25.8453811 156.868497,26.1953125 155.292969,26.1953125 C154.199213,26.1953125 153.203129,25.9951192 152.304688,25.5947266 C151.406246,25.1943339 150.721031,24.6458368 150.249023,23.9492188 C149.777016,23.2526007 149.541016,22.4453171 149.541016,21.5273438 L152.480469,21.5273438 C152.480469,23.096362 153.417959,23.8808594 155.292969,23.8808594 C155.989587,23.8808594 156.533201,23.7392592 156.923828,23.4560547 C157.314455,23.1728501 157.509766,22.7773463 157.509766,22.2695312 Z M165.546875,26 L162.617188,26 L162.617188,11.78125 L165.546875,11.78125 L165.546875,26 Z M179.941406,19.2128906 C179.941406,20.6126372 179.694013,21.8398385 179.199219,22.8945312 C178.704425,23.949224 177.996424,24.763018 177.075195,25.3359375 C176.153967,25.908857 175.097662,26.1953125 173.90625,26.1953125 C172.727859,26.1953125 171.676437,25.9121122 170.751953,25.3457031 C169.827469,24.779294 169.111331,23.9703829 168.603516,22.9189453 C168.095701,21.8675078 167.838542,20.65821 167.832031,19.2910156 L167.832031,18.5878906 C167.832031,17.188144 168.084307,15.95606 168.588867,14.8916016 C169.093427,13.8271431 169.80631,13.010094 170.727539,12.4404297 C171.648768,11.8707654 172.701817,11.5859375 173.886719,11.5859375 C175.071621,11.5859375 176.12467,11.8707654 177.045898,12.4404297 C177.967127,13.010094 178.68001,13.8271431 179.18457,14.8916016 C179.68913,15.95606 179.941406,17.1848889 179.941406,18.578125 L179.941406,19.2128906 Z M176.972656,18.5683594 C176.972656,17.0774665 176.705732,15.9446653 176.171875,15.1699219 C175.638018,14.3951784 174.876307,14.0078125 173.886719,14.0078125 C172.903641,14.0078125 172.145185,14.3902957 171.611328,15.1552734 C171.077471,15.9202512 170.807292,17.0416593 170.800781,18.5195312 L170.800781,19.2128906 C170.800781,20.6647208 171.067706,21.7910116 171.601562,22.5917969 C172.135419,23.3925821 172.903641,23.7929688 173.90625,23.7929688 C174.889328,23.7929688 175.644529,23.4072304 176.171875,22.6357422 C176.699221,21.864254 176.966146,20.7395907 176.972656,19.2617188 L176.972656,18.5683594 Z M193.632812,26 L190.703125,26 L185,16.6445312 L185,26 L182.070312,26 L182.070312,11.78125 L185,11.78125 L190.712891,21.15625 L190.712891,11.78125 L193.632812,11.78125 L193.632812,26 Z M84.3652344,43.1152344 L77.9882812,43.1152344 L77.9882812,49.0136719 L85.3613281,49.0136719 L85.3613281,50 L76.8164062,50 L76.8164062,35.78125 L85.3125,35.78125 L85.3125,36.7773438 L77.9882812,36.7773438 L77.9882812,42.1191406 L84.3652344,42.1191406 L84.3652344,43.1152344 Z M98.3203125,50 L97.1484375,50 L89.0722656,37.8320312 L89.0136719,37.8417969 L89.0136719,50 L87.8417969,50 L87.8417969,35.78125 L89.0136719,35.78125 L97.0898438,47.9199219 L97.1484375,47.9101562 L97.1484375,35.78125 L98.3203125,35.78125 L98.3203125,50 Z M103.095703,43.5742188 L103.095703,50 L101.923828,50 L101.923828,35.7910156 L106.660156,35.7910156 C108.183601,35.7910156 109.352209,36.1246711 110.166016,36.7919922 C110.979822,37.4593132 111.386719,38.4342384 111.386719,39.7167969 C111.386719,40.472009 111.17025,41.147458 110.737305,41.7431641 C110.30436,42.3388702 109.690759,42.7734361 108.896484,43.046875 C109.775395,43.2682303 110.408527,43.6637341 110.795898,44.2333984 C111.18327,44.8030627 111.376953,45.5175738 111.376953,46.3769531 L111.376953,47.7148438 C111.376953,48.1575543 111.429036,48.5546857 111.533203,48.90625 C111.63737,49.2578143 111.809895,49.5442697 112.050781,49.765625 L112.050781,50 L110.859375,50 C110.618488,49.7656238 110.449219,49.4368511 110.351562,49.0136719 C110.253906,48.5904927 110.205078,48.1510439 110.205078,47.6953125 L110.205078,46.3964844 C110.205078,45.5240842 109.923505,44.8356145 109.360352,44.3310547 C108.797198,43.8264949 108.011073,43.5742188 107.001953,43.5742188 L103.095703,43.5742188 Z M103.095703,42.578125 L106.523438,42.578125 C107.805996,42.578125 108.743487,42.3193385 109.335938,41.8017578 C109.928388,41.2841771 110.224609,40.5859419 110.224609,39.7070312 C110.224609,38.7695266 109.930016,38.0485051 109.34082,37.5439453 C108.751625,37.0393855 107.858079,36.7871094 106.660156,36.7871094 L103.095703,36.7871094 L103.095703,42.578125 Z M116.474609,50 L115.302734,50 L115.302734,35.78125 L116.474609,35.78125 L116.474609,50 Z M130.205078,45.5566406 L130.224609,45.6152344 C130.250651,47.0084705 129.794927,48.1217406 128.857422,48.9550781 C127.919917,49.7884156 126.689461,50.2050781 125.166016,50.2050781 C123.583976,50.2050781 122.307948,49.6337948 121.337891,48.4912109 C120.367834,47.3486271 119.882812,45.8691497 119.882812,44.0527344 L119.882812,41.7382812 C119.882812,39.9283764 120.367834,38.448899 121.337891,37.2998047 C122.307948,36.1507104 123.583976,35.5761719 125.166016,35.5761719 C126.708992,35.5761719 127.944331,35.9830688 128.87207,36.796875 C129.799809,37.6106812 130.250651,38.7304616 130.224609,40.15625 L130.205078,40.2148438 L129.111328,40.2148438 C129.111328,39.0690047 128.761397,38.1754589 128.061523,37.5341797 C127.36165,36.8929004 126.396491,36.5722656 125.166016,36.5722656 C123.92252,36.5722656 122.924808,37.0540316 122.172852,38.0175781 C121.420895,38.9811246 121.044922,40.2148362 121.044922,41.71875 L121.044922,44.0527344 C121.044922,45.5761795 121.420895,46.8180291 122.172852,47.7783203 C122.924808,48.7386116 123.92252,49.21875 125.166016,49.21875 C126.396491,49.21875 127.36165,48.9062531 128.061523,48.28125 C128.761397,47.6562469 129.111328,46.7480528 129.111328,45.5566406 L130.205078,45.5566406 Z M143.652344,50 L142.480469,50 L142.480469,43.4570312 L134.404297,43.4570312 L134.404297,50 L133.232422,50 L133.232422,35.78125 L134.404297,35.78125 L134.404297,42.4609375 L142.480469,42.4609375 L142.480469,35.78125 L143.652344,35.78125 L143.652344,50 Z M154.121094,48.3007812 L154.179688,48.3007812 L159.472656,35.78125 L160.898438,35.78125 L160.898438,50 L159.726562,50 L159.726562,38.0566406 L159.667969,38.046875 L154.570312,50 L153.730469,50 L148.515625,37.7539062 L148.457031,37.7636719 L148.457031,50 L147.285156,50 L147.285156,35.78125 L148.847656,35.78125 L154.121094,48.3007812 Z M172.080078,43.1152344 L165.703125,43.1152344 L165.703125,49.0136719 L173.076172,49.0136719 L173.076172,50 L164.53125,50 L164.53125,35.78125 L173.027344,35.78125 L173.027344,36.7773438 L165.703125,36.7773438 L165.703125,42.1191406 L172.080078,42.1191406 L172.080078,43.1152344 Z M186.035156,50 L184.863281,50 L176.787109,37.8320312 L176.728516,37.8417969 L176.728516,50 L175.556641,50 L175.556641,35.78125 L176.728516,35.78125 L184.804688,47.9199219 L184.863281,47.9101562 L184.863281,35.78125 L186.035156,35.78125 L186.035156,50 Z M199.052734,36.7773438 L194.208984,36.7773438 L194.208984,50 L193.046875,50 L193.046875,36.7773438 L188.037109,36.7773438 L188.037109,35.78125 L199.052734,35.78125 L199.052734,36.7773438 Z" id="Submission-Enrichmen" fill="#FFFFFF"></path>
            </g>
        </g>
    </g>
</svg>